<svg width="608" height="741" viewBox="0 0 608 741" fill="none" xmlns="http://www.w3.org/2000/svg">
<path d="M50.3682 622.152C-14.0309 607.9 -13.6429 462.806 38.4656 412.066C90.5741 361.326 2.63243 232.393 61.9143 77.2002C121.196 -77.9928 482.863 158.586 559.162 285.658C635.46 412.73 445.199 519.562 420.647 630.497C396.095 741.431 318.196 776.785 217.72 696.046C117.244 615.307 114.767 636.405 50.3682 622.152Z" fill="#C5EAC9"/>
<path d="M511 487C511 447.603 505.038 408.593 493.454 372.195C481.871 335.797 464.892 302.726 443.488 274.868C422.084 247.01 396.674 224.913 368.709 209.836C340.743 194.76 310.77 187 280.5 187C250.23 187 220.257 194.76 192.291 209.836C164.326 224.913 138.916 247.01 117.512 274.868C96.108 302.726 79.1295 335.797 67.5458 372.195C55.9621 408.593 50 447.603 50 487L511 487Z" fill="#ACA4D9"/>
<ellipse cx="289.829" cy="517.667" rx="82.7508" ry="26.5227" fill="black" fill-opacity="0.3"/>
<path d="M26.3574 137.913C32.5591 58.7993 47.0221 -16.7101 175.13 5.38288" stroke="#C5EAC9" stroke-width="2" stroke-linecap="round"/>
<path d="M553.438 467.9C607.344 390.121 646.2 302.161 534.114 224" stroke="#C5EAC9" stroke-width="2" stroke-linecap="round"/>
<path d="M80.4092 641.469C109.895 642.299 137.039 653.006 171.938 682.984" stroke="#C5EAC9" stroke-width="2" stroke-linecap="round"/>
<ellipse cx="277.101" cy="518.142" rx="82.7508" ry="26.5227" fill="#476B72"/>
<path d="M319.538 495.333L295.137 516.021C289.302 510.539 267.845 492.065 277.632 491.62C289.302 491.089 314.233 493.742 319.538 495.333Z" fill="#34555A"/>
<ellipse cx="275.51" cy="509.124" rx="23.8704" ry="12.2004" fill="#3E646A"/>
<rect x="251.64" y="462.975" width="47.7409" height="45.6191" fill="#3E646A"/>
<path d="M299.381 479.949L251.64 477.297V470.932L299.381 472.523V479.949Z" fill="#34555A"/>
<path d="M376.298 326.224L397.753 361.581L391.488 448.794L366.748 479.207L376.298 326.224Z" fill="#34555A"/>
<path d="M169.419 398.578L110 421.5L83.9999 377.5" stroke="#383838" stroke-width="15" stroke-linecap="round"/>
<path d="M158 411L159 394.5L165 392L164.5 408.5L158 411Z" fill="#272727"/>
<path d="M383.722 404.095L448 427L425 466.5" stroke="#383838" stroke-width="15" stroke-linecap="round"/>
<path d="M392.5 399.5L389.5 414.5L381 411L386.5 395.5L392.5 399.5Z" fill="#272727"/>
<path d="M167.993 312.432L389.558 323.784L378.978 481.117L157.442 468.386L167.993 312.432Z" fill="#476B72"/>
<path d="M94.1521 546.7L372.772 551.172L360 594.5C358.308 600.938 350.546 605.1 343.916 604.828L58.0912 593.081C53.7107 592.901 51.733 587.571 54.9108 584.509L94.1521 546.7Z" fill="#3E646A"/>
<path d="M110.785 580.214L188.849 582.86L184.896 588.715L104.884 585.504L110.785 580.214Z" fill="#476B72"/>
<path d="M97.2446 580.246L107.243 580.058L102.838 585.142L92.3301 584.84L97.2446 580.246Z" fill="#476B72"/>
<path d="M83.772 579.767L93.7706 579.58L89.3652 584.663L78.8574 584.361L83.772 579.767Z" fill="#476B72"/>
<path d="M207.338 584.175L217.337 583.987L212.932 589.071L202.424 588.769L207.338 584.175Z" fill="#476B72"/>
<path d="M193.866 583.696L203.864 583.508L199.459 588.592L188.951 588.29L193.866 583.696Z" fill="#476B72"/>
<path d="M234.353 584.666L244.351 584.479L239.946 589.562L229.438 589.26L234.353 584.666Z" fill="#476B72"/>
<path d="M220.879 584.188L230.878 584L226.473 589.084L215.965 588.781L220.879 584.188Z" fill="#476B72"/>
<path d="M204.724 576.034L214.724 575.894L210.294 580.956L199.788 580.604L204.724 576.034Z" fill="#476B72"/>
<path d="M150.702 574.79L160.701 574.65L156.271 579.713L145.765 579.36L150.702 574.79Z" fill="#476B72"/>
<path d="M96.6793 573.546L106.679 573.406L102.249 578.469L91.7427 578.116L96.6793 573.546Z" fill="#476B72"/>
<path d="M84.6807 573.772L94.6801 573.632L90.2503 578.695L79.7441 578.342L84.6807 573.772Z" fill="#476B72"/>
<path d="M191.254 575.49L201.253 575.35L196.824 580.412L186.317 580.059L191.254 575.49Z" fill="#476B72"/>
<path d="M137.232 574.246L147.231 574.106L142.801 579.169L132.295 578.816L137.232 574.246Z" fill="#476B72"/>
<path d="M69.4072 573.787L81.1554 573.566L77.2411 578.141L64.4927 578.381L69.4072 573.787Z" fill="#476B72"/>
<path d="M229.769 577.042L239.768 576.902L235.338 581.965L224.832 581.612L229.769 577.042Z" fill="#476B72"/>
<path d="M240.265 577.893L252.784 577.658L248.354 582.72L235.328 582.463L240.265 577.893Z" fill="#476B72"/>
<path d="M177.713 575.412L187.712 575.272L183.283 580.334L172.776 579.981L177.713 575.412Z" fill="#476B72"/>
<path d="M123.691 574.168L133.69 574.028L129.26 579.091L118.754 578.738L123.691 574.168Z" fill="#476B72"/>
<path d="M218.265 576.112L228.265 575.972L223.835 581.034L213.329 580.682L218.265 576.112Z" fill="#476B72"/>
<path d="M164.243 574.868L174.242 574.729L169.812 579.791L159.306 579.438L164.243 574.868Z" fill="#476B72"/>
<path d="M110.22 573.624L120.219 573.484L115.789 578.547L105.283 578.194L110.22 573.624Z" fill="#476B72"/>
<path d="M218.612 570.701L228.612 570.716L224.104 575.709L213.605 575.193L218.612 570.701Z" fill="#476B72"/>
<path d="M164.615 568.621L174.615 568.636L170.107 573.629L159.608 573.114L164.615 568.621Z" fill="#476B72"/>
<path d="M110.617 566.541L120.618 566.556L116.11 571.549L105.61 571.033L110.617 566.541Z" fill="#476B72"/>
<path d="M98.6176 566.581L108.618 566.596L104.11 571.589L93.6108 571.073L98.6176 566.581Z" fill="#476B72"/>
<path d="M205.151 569.949L215.152 569.964L210.644 574.957L200.144 574.442L205.151 569.949Z" fill="#476B72"/>
<path d="M151.154 567.868L161.155 567.883L156.647 572.876L146.147 572.361L151.154 567.868Z" fill="#476B72"/>
<path d="M248.156 565.155L263.013 565.079L253.22 576.06L242.72 575.545L248.231 569.155L243.732 569.239L248.156 565.155Z" fill="#476B72"/>
<path d="M191.613 569.661L201.614 569.676L197.106 574.669L186.606 574.154L191.613 569.661Z" fill="#476B72"/>
<path d="M137.616 567.581L147.616 567.596L143.109 572.589L132.609 572.073L137.616 567.581Z" fill="#476B72"/>
<path d="M232.15 570.989L242.15 571.004L237.642 575.998L227.143 575.482L232.15 570.989Z" fill="#476B72"/>
<path d="M178.153 568.909L188.154 568.924L183.646 573.917L173.146 573.401L178.153 568.909Z" fill="#476B72"/>
<path d="M124.156 566.828L134.156 566.843L129.648 571.836L119.149 571.32L124.156 566.828Z" fill="#476B72"/>
<path d="M221.498 564.646L231.499 564.661L226.991 569.654L216.492 569.138L221.498 564.646Z" fill="#476B72"/>
<path d="M167.501 562.566L177.502 562.581L172.994 567.574L162.495 567.059L167.501 562.566Z" fill="#476B72"/>
<path d="M113.504 560.485L123.504 560.5L118.997 565.493L108.497 564.978L113.504 560.485Z" fill="#476B72"/>
<path d="M101.504 560.525L111.504 560.54L106.997 565.533L96.4971 565.018L101.504 560.525Z" fill="#476B72"/>
<path d="M208.038 563.893L218.038 563.908L213.531 568.901L203.031 568.386L208.038 563.893Z" fill="#476B72"/>
<path d="M154.041 561.813L164.042 561.828L159.534 566.821L149.035 566.306L154.041 561.813Z" fill="#476B72"/>
<path d="M194.5 563.605L204.5 563.621L199.993 568.614L189.493 568.098L194.5 563.605Z" fill="#476B72"/>
<path d="M140.502 561.525L150.503 561.54L145.995 566.534L135.496 566.018L140.502 561.525Z" fill="#476B72"/>
<path d="M235.036 564.934L245.036 564.949L240.529 569.942L230.029 569.426L235.036 564.934Z" fill="#476B72"/>
<path d="M181.039 562.853L191.04 562.868L186.532 567.861L176.033 567.346L181.039 562.853Z" fill="#476B72"/>
<path d="M127.042 560.773L137.043 560.788L132.535 565.781L122.036 565.266L127.042 560.773Z" fill="#476B72"/>
<path d="M221.385 558.646L231.386 558.662L226.878 563.655L216.378 563.139L221.385 558.646Z" fill="#476B72"/>
<path d="M167.389 556.567L177.389 556.582L172.881 561.575L162.382 561.06L167.389 556.567Z" fill="#476B72"/>
<path d="M113.391 554.486L123.391 554.501L118.884 559.494L108.384 558.979L113.391 554.486Z" fill="#476B72"/>
<path d="M101.391 554.526L111.391 554.542L106.884 559.535L96.3843 559.019L101.391 554.526Z" fill="#476B72"/>
<path d="M207.925 557.895L217.926 557.91L213.418 562.903L202.918 562.387L207.925 557.895Z" fill="#476B72"/>
<path d="M153.928 555.814L163.928 555.829L159.42 560.822L148.921 560.307L153.928 555.814Z" fill="#476B72"/>
<path d="M249.37 558.953L268.906 558.585L264.004 563.791L244.363 563.445L249.37 558.953Z" fill="#476B72"/>
<path d="M194.387 557.607L204.387 557.622L199.88 562.615L189.38 562.1L194.387 557.607Z" fill="#476B72"/>
<path d="M140.39 555.526L150.39 555.542L145.882 560.535L135.383 560.019L140.39 555.526Z" fill="#476B72"/>
<path d="M234.923 558.935L244.924 558.95L240.416 563.943L229.916 563.427L234.923 558.935Z" fill="#476B72"/>
<path d="M180.927 556.854L190.927 556.87L186.419 561.863L175.92 561.347L180.927 556.854Z" fill="#476B72"/>
<path d="M126.929 554.773L136.93 554.789L132.422 559.782L121.922 559.266L126.929 554.773Z" fill="#476B72"/>
<path d="M275.383 585.895L285.381 585.707L280.976 590.79L270.468 590.488L275.383 585.895Z" fill="#476B72"/>
<path d="M288.924 585.907L298.923 585.719L294.518 590.803L284.01 590.501L288.924 585.907Z" fill="#476B72"/>
<path d="M332.973 588.079L342.971 587.891L338.566 592.974L328.058 592.672L332.973 588.079Z" fill="#476B72"/>
<path d="M280.794 579.059L290.792 578.871L286.387 583.955L275.879 583.652L280.794 579.059Z" fill="#476B72"/>
<path d="M261.91 585.415L271.908 585.228L267.503 590.311L256.995 590.009L261.91 585.415Z" fill="#476B72"/>
<path d="M63.7631 579.497L79.7603 579.196L75.3549 584.28L58.8486 584.091L63.7631 579.497Z" fill="#476B72"/>
<path d="M82.4213 561.142L98.4185 560.841L94.0131 565.925L77.5068 565.736L82.4213 561.142Z" fill="#476B72"/>
<path d="M88.3071 555.031L96.3058 554.88L92.1401 559.46L83.3926 559.625L88.3071 555.031Z" fill="#476B72"/>
<path d="M97.1841 548.392L105.183 548.241L101.017 552.821L92.2695 552.986L97.1841 548.392Z" fill="#476B72"/>
<path d="M113.357 548.271L121.356 548.434L117.014 552.847L108.267 552.669L113.357 548.271Z" fill="#476B72"/>
<path d="M125.354 548.516L133.353 548.678L129.011 553.091L120.264 552.913L125.354 548.516Z" fill="#476B72"/>
<path d="M138.352 548.781L146.35 548.944L142.008 553.357L133.261 553.179L138.352 548.781Z" fill="#476B72"/>
<path d="M150.349 549.025L158.348 549.188L154.006 553.601L145.258 553.423L150.349 549.025Z" fill="#476B72"/>
<path d="M170.385 549.198L178.383 549.361L174.041 553.774L165.294 553.596L170.385 549.198Z" fill="#476B72"/>
<path d="M182.382 549.443L190.38 549.605L186.038 554.019L177.291 553.84L182.382 549.443Z" fill="#476B72"/>
<path d="M195.38 549.728L203.378 549.891L199.036 554.304L190.289 554.125L195.38 549.728Z" fill="#476B72"/>
<path d="M207.377 549.952L215.376 550.115L211.034 554.528L202.286 554.35L207.377 549.952Z" fill="#476B72"/>
<path d="M226.412 550.144L234.411 550.307L230.069 554.72L221.321 554.541L226.412 550.144Z" fill="#476B72"/>
<path d="M238.41 550.389L246.409 550.551L242.067 554.964L233.32 554.786L238.41 550.389Z" fill="#476B72"/>
<path d="M287.316 551.824L295.316 551.877L291.035 556.349L282.286 556.291L287.316 551.824Z" fill="#476B72"/>
<path d="M251.407 550.674L259.405 550.836L255.063 555.25L246.316 555.071L251.407 550.674Z" fill="#476B72"/>
<path d="M300.316 551.931L308.316 551.984L304.035 556.456L295.286 556.397L300.316 551.931Z" fill="#476B72"/>
<path d="M263.404 550.898L271.403 551.061L267.061 555.474L258.314 555.295L263.404 550.898Z" fill="#476B72"/>
<path d="M312.316 551.991L320.315 552.044L316.034 556.516L307.286 556.458L312.316 551.991Z" fill="#476B72"/>
<path d="M281.954 560.812L289.854 560.843L285.638 565.327L276.999 565.292L281.954 560.812Z" fill="#476B72"/>
<path d="M294.792 560.884L302.691 560.916L298.476 565.4L289.837 565.364L294.792 560.884Z" fill="#476B72"/>
<path d="M306.639 560.912L314.539 560.944L310.323 565.427L301.684 565.392L306.639 560.912Z" fill="#476B72"/>
<path d="M276.241 567.019L284.14 567.05L279.925 571.534L271.286 571.499L276.241 567.019Z" fill="#476B72"/>
<path d="M289.078 567.091L296.978 567.123L292.762 571.607L284.123 571.571L289.078 567.091Z" fill="#476B72"/>
<path d="M300.927 567.12L308.826 567.152L304.61 571.635L295.971 571.6L300.927 567.12Z" fill="#476B72"/>
<path d="M75.5391 567.45L94.5358 567.092L90.1305 572.176L70.6245 572.043L75.5391 567.45Z" fill="#476B72"/>
<path d="M314.964 587.77L330.961 587.469L326.556 592.553L310.049 592.364L314.964 587.77Z" fill="#476B72"/>
<path d="M321.2 581.165L328.568 581.026L323.967 585.804L315.93 585.955L321.2 581.165Z" fill="#476B72"/>
<path d="M331.198 580.977L338.566 580.838L333.965 585.616L325.928 585.767L331.198 580.977Z" fill="#476B72"/>
<path d="M339.9 581.39L346.347 581.269L342.668 586.029L334.631 586.181L339.9 581.39Z" fill="#476B72"/>
<path d="M325.086 575.091L332.454 574.952L327.854 579.73L319.816 579.881L325.086 575.091Z" fill="#476B72"/>
<path d="M328.835 569.253L336.196 568.896L331.74 573.808L323.71 574.198L328.835 569.253Z" fill="#476B72"/>
<path d="M331.54 563.115L338.901 562.757L334.445 567.669L326.415 568.059L331.54 563.115Z" fill="#476B72"/>
<path d="M335.084 574.903L342.452 574.764L337.852 579.542L329.814 579.693L335.084 574.903Z" fill="#476B72"/>
<path d="M338.823 568.767L346.184 568.41L341.728 573.322L333.699 573.712L338.823 568.767Z" fill="#476B72"/>
<path d="M341.528 562.629L348.889 562.271L344.433 567.183L336.404 567.574L341.528 562.629Z" fill="#476B72"/>
<path d="M343.787 575.317L350.234 575.195L346.555 579.956L338.518 580.107L343.787 575.317Z" fill="#476B72"/>
<path d="M347.535 568.922L353.975 568.609L350.439 573.477L342.41 573.867L347.535 568.922Z" fill="#476B72"/>
<path d="M350.24 562.784L356.68 562.471L353.144 567.338L345.115 567.729L350.24 562.784Z" fill="#476B72"/>
<path d="M348.341 580.922L356.839 580.761L352.585 593.844L341.562 592.771L348.341 580.922Z" fill="#476B72"/>
<path d="M351.22 574.466L359.218 574.315L357.32 579.721L348.821 579.88L351.22 574.466Z" fill="#476B72"/>
<path d="M354.495 569.007L361.979 568.512L360.21 573.325L351.721 573.738L354.495 569.007Z" fill="#476B72"/>
<path d="M362.434 566.635L364.402 562.313L357.41 562.653L355.397 566.978L362.434 566.635Z" fill="#476B72"/>
<path d="M372.772 551.172L362.103 597.795C362.103 597.795 360.204 605.797 353.075 605.231C348.039 604.832 58.2419 593.131 58.2419 593.131C58.2419 593.131 50.1098 592.549 54.1449 585.428L351.028 597.595C351.028 597.595 356.493 597.933 358.206 594.241L372.772 551.172Z" fill="#374A4C"/>
<path d="M392.21 330.15L389.557 323.784L378.978 481.117L383.192 476.555L392.21 330.15Z" fill="#3E646A"/>
<path d="M176.602 320.887L379.588 331.639L370.672 464.628L167.68 452.977L176.602 320.887Z" fill="#EBDCDC"/>
<path d="M292.89 419.08L243.955 418.285C243.955 418.285 248.925 443.606 270.077 443.249C291.23 442.893 292.89 419.08 292.89 419.08Z" fill="#383838"/>
<path d="M273.261 441.875C285.998 442.231 290.5 428.5 290.5 428.5L274.602 428.909L258.705 429.317C258.705 429.317 260.524 441.518 273.261 441.875Z" fill="#B14545"/>
<path d="M273.261 441.875C285.998 442.231 290.5 428.5 290.5 428.5C290.5 428.5 285.212 438.078 273.534 437.796C261.855 437.513 258.705 429.317 258.705 429.317C258.705 429.317 260.524 441.518 273.261 441.875Z" fill="#783F3F"/>
<path d="M201.776 359.324C205.595 341.501 221.049 336.338 228.299 335.984L215.037 347.654L201.776 359.324Z" fill="#383838"/>
<path d="M347.087 365.947C344.179 347.953 329.007 342.011 321.785 341.289L334.436 353.618L347.087 365.947Z" fill="#383838"/>
<path d="M203.899 384.256C205.404 369.968 218.136 355.602 232.013 359.324C244.452 362.661 247.206 376.919 244.744 389.56C242.097 403.152 230.898 414.407 217.69 410.248C206.379 406.687 202.657 396.049 203.899 384.256Z" fill="url(#paint0_radial_733_518)"/>
<path d="M216.661 385.367C217.385 378.423 223.511 371.443 230.188 373.252C236.173 374.873 237.498 381.802 236.314 387.945C235.04 394.549 229.652 400.019 223.297 397.998C217.854 396.267 216.063 391.098 216.661 385.367Z" fill="#405B41"/>
<path d="M216.661 385.367C217.385 378.423 221.823 376.19 228.5 377.999C234.485 379.62 237.498 381.802 236.314 387.944C235.04 394.549 229.652 400.018 223.297 397.998C217.854 396.267 216.063 391.098 216.661 385.367Z" fill="#629F64"/>
<path d="M219.809 385.448C220.305 380.241 224.496 375.005 229.064 376.362C233.16 377.578 234.066 382.774 233.256 387.381C232.384 392.335 228.697 396.437 224.349 394.921C220.626 393.623 219.4 389.746 219.809 385.448Z" fill="#383838"/>
<path d="M228.752 376.74C228.75 379.321 225.323 381.41 221.097 381.406C216.872 381.403 213.449 379.308 213.451 376.727C213.453 374.147 216.88 372.058 221.105 372.062C225.33 372.065 228.754 374.16 228.752 376.74Z" fill="white"/>
<path d="M333.665 390.527C332.16 376.239 319.428 361.873 305.551 365.595C293.112 368.932 290.358 383.19 292.82 395.831C295.467 409.423 306.666 420.678 319.873 416.519C331.185 412.958 334.907 402.32 333.665 390.527Z" fill="url(#paint1_radial_733_518)"/>
<path d="M320.903 391.638C320.179 384.694 314.053 377.714 307.376 379.523C301.391 381.144 300.066 388.073 301.25 394.216C302.524 400.82 307.912 406.29 314.267 404.269C319.71 402.538 321.501 397.369 320.903 391.638Z" fill="#405B41"/>
<path d="M320.903 391.638C320.179 384.695 315.741 382.462 309.064 384.271C303.079 385.892 300.066 388.073 301.25 394.216C302.524 400.821 307.912 406.29 314.267 404.269C319.71 402.538 321.501 397.369 320.903 391.638Z" fill="#629F64"/>
<path d="M317.755 391.72C317.259 386.512 313.068 381.277 308.499 382.633C304.404 383.849 303.498 389.046 304.308 393.653C305.18 398.607 308.867 402.709 313.215 401.193C316.938 399.895 318.164 396.018 317.755 391.72Z" fill="#383838"/>
<path d="M296.004 382.685C296.006 385.265 299.433 387.354 303.658 387.351C307.884 387.347 311.307 385.252 311.305 382.672C311.303 380.091 307.876 378.002 303.651 378.006C299.425 378.009 296.002 380.104 296.004 382.685Z" fill="white"/>
<path d="M314.836 191.064L461.636 198.732C477.906 199.582 490.407 213.46 489.557 229.731L487.784 263.684C486.934 279.954 473.055 292.455 456.785 291.605L280.526 282.399L283.838 218.985C284.688 202.715 298.566 190.214 314.836 191.064Z" stroke="white"/>
<path d="M261.338 235.959C262.203 219.413 276.316 206.701 292.862 207.565L439.662 215.233C456.208 216.097 468.921 230.211 468.057 246.757L466.283 280.71C465.419 297.256 451.305 309.969 434.759 309.105L258 299.872L261.338 235.959Z" fill="#3E646A"/>
<path d="M278.479 265.074L279.814 239.515L288.766 239.983C291.868 240.145 294.189 240.865 295.73 242.142C297.271 243.408 297.982 245.188 297.862 247.481C297.797 248.734 297.417 249.823 296.723 250.749C296.03 251.663 295.099 252.312 293.929 252.697C295.222 253.093 296.217 253.808 296.914 254.842C297.623 255.877 297.94 257.114 297.865 258.553C297.736 261.011 296.855 262.831 295.221 264.013C293.587 265.195 291.318 265.721 288.414 265.593L278.479 265.074ZM284.326 254.22L283.966 261.119L288.477 261.354C289.718 261.419 290.699 261.177 291.42 260.628C292.153 260.068 292.547 259.267 292.601 258.225C292.723 255.885 291.574 254.634 289.154 254.472L284.326 254.22ZM284.521 250.498L288.418 250.702C291.077 250.794 292.46 249.804 292.568 247.733C292.629 246.574 292.333 245.726 291.68 245.187C291.04 244.637 289.995 244.324 288.544 244.249L284.857 244.056L284.521 250.498ZM309.83 267.064C307.044 266.918 304.819 265.945 303.153 264.145C301.498 262.346 300.745 260.024 300.894 257.18L300.919 256.688C301.019 254.781 301.477 253.097 302.292 251.638C303.108 250.167 304.21 249.063 305.598 248.325C306.999 247.577 308.565 247.248 310.297 247.339C312.895 247.474 314.894 248.4 316.295 250.116C317.707 251.833 318.335 254.195 318.178 257.203L318.069 259.274L305.975 258.642C306.074 259.891 306.513 260.912 307.293 261.704C308.085 262.496 309.113 262.925 310.377 262.991C312.331 263.093 313.895 262.465 315.069 261.106L317.416 264.028C316.599 265.065 315.526 265.853 314.195 266.394C312.865 266.923 311.41 267.146 309.83 267.064ZM310.065 251.445C309.058 251.393 308.221 251.69 307.554 252.335C306.898 252.982 306.45 253.932 306.208 255.187L313.265 255.556L313.286 255.152C313.321 254.027 313.062 253.145 312.509 252.506C311.956 251.855 311.141 251.502 310.065 251.445ZM326.305 248.527L326.352 250.659C327.784 249.079 329.647 248.349 331.941 248.469C334.387 248.597 336.016 249.65 336.828 251.629C338.263 249.768 340.215 248.901 342.684 249.03C344.744 249.138 346.245 249.821 347.189 251.079C348.133 252.325 348.542 254.153 348.416 256.564L347.783 268.694L342.692 268.428L343.325 256.316C343.381 255.239 343.211 254.444 342.816 253.931C342.42 253.405 341.691 253.115 340.626 253.059C339.104 252.98 338.013 253.65 337.352 255.071L336.688 268.115L331.615 267.85L332.247 255.755C332.304 254.655 332.129 253.848 331.722 253.334C331.315 252.819 330.59 252.535 329.549 252.481C328.109 252.406 327.037 252.948 326.331 254.108L325.629 267.537L320.556 267.272L321.548 248.278L326.305 248.527ZM362.028 260.514L352.145 259.998L352.358 255.908L362.241 256.424L362.028 260.514ZM373.068 263.801L377.265 251.189L382.567 251.466L375.167 270.125L370.322 269.872L364.907 250.543L370.208 250.82L373.068 263.801ZM389.175 270.856L384.085 270.59L385.077 251.597L390.168 251.863L389.175 270.856ZM385.035 246.666C385.075 245.905 385.359 245.292 385.888 244.827C386.429 244.362 387.138 244.153 388.016 244.199C388.882 244.244 389.559 244.526 390.048 245.044C390.538 245.563 390.762 246.202 390.723 246.963C390.682 247.735 390.386 248.354 389.834 248.818C389.293 249.282 388.596 249.492 387.741 249.448C386.887 249.403 386.209 249.121 385.708 248.602C385.219 248.084 384.995 247.438 385.035 246.666ZM399.032 252.326L399.076 254.528C400.522 252.902 402.386 252.149 404.668 252.268C406.681 252.373 408.148 253.042 409.069 254.276C409.991 255.509 410.402 257.302 410.302 259.656L409.661 271.926L404.588 271.661L405.223 259.514C405.279 258.437 405.085 257.647 404.642 257.142C404.2 256.626 403.434 256.34 402.346 256.283C400.918 256.209 399.816 256.761 399.038 257.941L398.339 271.335L393.266 271.07L394.258 252.076L399.032 252.326ZM413.237 262.45C413.391 259.489 414.176 257.165 415.59 255.479C417.015 253.793 418.881 253.01 421.187 253.131C423.036 253.227 424.527 253.998 425.66 255.442L426.166 245.752L431.257 246.017L429.848 272.981L425.267 272.741L425.127 270.71C423.78 272.224 422.112 272.929 420.123 272.825C417.887 272.708 416.137 271.736 414.871 269.91C413.618 268.073 413.073 265.586 413.237 262.45ZM418.29 263.083C418.198 264.862 418.436 266.242 419.007 267.222C419.578 268.202 420.454 268.723 421.636 268.785C423.204 268.867 424.345 268.263 425.058 266.975L425.449 259.479C424.886 258.124 423.827 257.405 422.27 257.324C419.824 257.196 418.498 259.116 418.29 263.083ZM433.496 263.473C433.594 261.588 434.045 259.928 434.847 258.491C435.65 257.055 436.751 255.968 438.151 255.231C439.562 254.495 441.169 254.175 442.971 254.269C445.534 254.403 447.582 255.296 449.115 256.948C450.66 258.601 451.456 260.779 451.502 263.48L451.47 264.781C451.318 267.695 450.382 269.993 448.663 271.675C446.945 273.346 444.716 274.109 441.978 273.966C439.239 273.823 437.097 272.831 435.55 270.99C434.015 269.15 433.326 266.72 433.484 263.701L433.496 263.473ZM438.55 264.106C438.456 265.908 438.723 267.307 439.352 268.302C439.981 269.285 440.927 269.81 442.191 269.876C443.42 269.94 444.404 269.522 445.144 268.622C445.884 267.71 446.308 266.219 446.416 264.147C446.508 262.38 446.234 260.993 445.595 259.986C444.955 258.978 444.009 258.442 442.757 258.376C441.516 258.312 440.531 258.747 439.802 259.683C439.073 260.607 438.656 262.082 438.55 264.106Z" fill="white"/>
<path d="M420.5 553C420.5 553 435.951 547.664 432.204 536.501C427 521 455.5 536.501 449.704 526.501C442.209 513.568 483.619 512.626 447.204 505.642C423 501 401.796 512.5 386 512.5C370.763 512.5 351.064 474.64 337 480.5C331 483 331 487 331 487" stroke="#313D3F"/>
<path d="M422.003 552.692C429.882 559.038 425.762 572.208 415.838 584.528C405.914 596.848 390.786 597.46 383.478 592.97C375.599 586.624 374.792 571.482 384.716 559.162C394.64 546.842 414.125 546.346 422.003 552.692Z" fill="#3E646A"/>
<path d="M383.478 592.97C375.599 586.624 374.792 571.482 384.716 559.162C374.357 574.359 379.574 588.033 383.478 592.97Z" fill="#385A5F"/>
<path d="M420.038 579.358C414.711 588.783 402.541 598.19 388.475 594.971C403.839 586.924 408.233 574.367 413.545 567.061C418.857 559.755 421.471 556.682 424.638 558.797C427.805 560.913 425.685 569.368 420.038 579.358Z" fill="#374A4D"/>
<path d="M405.279 553.88C405.807 553.933 407.285 555.148 406.704 555.623C406.123 556.098 399.1 562.323 398.294 560.505C398.734 555.355 404.752 553.827 405.279 553.88Z" fill="#374A4C"/>
<path d="M405.28 553.881C404.752 553.827 398.734 555.355 398.295 560.505C399.733 556.109 403.55 554.257 405.28 553.881Z" fill="#293739"/>
<path d="M87.5621 483.73C90.8738 483.01 86.2518 482.848 89.5242 483.73C92.7965 484.611 95.8101 486.263 98.3128 488.548C100.815 490.833 102.734 493.684 103.909 496.863C105.084 500.042 105.48 503.456 105.064 506.819C104.649 510.183 103.434 513.398 101.521 516.195C99.6079 518.992 97.0528 521.291 94.0692 522.898C91.0857 524.505 87.7606 525.374 84.3722 525.433C80.9838 525.491 85.6884 524.984 82.6512 523.481L85.4471 517.832C87.5822 518.889 81.8816 519.173 84.2635 519.131C86.6455 519.09 88.9829 518.479 91.0803 517.35C93.1776 516.22 94.9738 514.604 96.3186 512.637C97.6633 510.671 98.5175 508.411 98.8096 506.047C99.1017 503.682 98.8232 501.282 97.9974 499.048C97.1717 496.813 95.8227 494.809 94.0634 493.203C92.304 491.596 90.1856 490.435 87.8852 489.815C85.5849 489.196 91.2273 489.383 88.8993 489.888L87.5621 483.73Z" fill="#8C8C8C"/>
<path d="M38.644 478.629H91.6894L86.3849 526.37H43.9486L38.644 478.629Z" fill="#AAAAAA"/>
<ellipse cx="65.1664" cy="526.369" rx="21.2182" ry="5.30454" fill="#AAAAAA"/>
<path d="M43.9671 526.781L38.665 478.649C47.0138 527.317 49.553 526.008 61.6033 531.544C60.3561 531.632 56.5631 531.526 51.3684 530.391C46.1736 529.256 44.2697 527.511 43.9671 526.781Z" fill="#989898"/>
<ellipse cx="65.1663" cy="478.629" rx="26.5227" ry="5.30454" fill="#8C8C8C"/>
<ellipse cx="65.167" cy="478.629" rx="24.4009" ry="3.18272" fill="#5F372A"/>
<path d="M89.5679 478.629C89.5679 480.387 78.6432 481.812 65.167 481.812C51.6908 481.812 40.7661 480.387 40.7661 478.629C46 478 51 477.5 65.5 477C76.5 477 85.5 477.5 89.5679 478.629Z" fill="#47291F"/>
<g clip-path="url(#clip0_733_518)">
<path d="M50.1589 345.274C44.6829 339.228 24.4713 326.45 22.3612 334.673C21.5977 342.944 27.968 344.165 44.9767 364.479C44.9767 364.479 59.9055 389.382 72.8347 386.597C72.8347 386.597 72.8101 393.917 85.3983 391.983C85.3983 391.983 102.771 384.857 95.9083 372.823C95.9083 372.823 101.378 363.723 95.2618 354.125C95.2618 354.125 87.9747 346.124 97.4122 338.936C106.85 331.749 99.4747 325.561 99.4747 325.561C99.4747 325.561 90.9122 318.374 82.7872 328.561C82.7872 328.561 81.2872 329.999 82.0997 336.249C82.9122 342.499 80.9747 342.811 80.9747 342.811C80.9747 342.811 79.2872 344.249 74.5372 340.186C69.7872 336.124 60.0372 330.124 60.0372 330.124C60.0372 330.124 48.5372 323.874 38.9122 325.749C38.9122 325.749 23.4747 320.436 23.7872 332.561" fill="white"/>
<path d="M95.9086 372.822C95.9086 372.822 92.4464 379.466 87.0989 374.56C87.0989 374.56 85.4968 357.192 67.7874 353.311C67.7874 353.311 81.3675 355.264 84.5053 375.549C84.5053 375.549 84.1176 382.503 74.2081 383.106C61.0864 383.904 41.9574 360.937 41.9574 360.937C41.9574 360.937 59.3986 389.977 72.8349 386.597C72.8349 386.597 72.5197 393.976 85.3986 391.982C85.3986 391.982 102.882 385.063 95.9086 372.822Z" fill="#B3B3B3"/>
<path d="M23.7874 332.561C36.9551 331.769 50.8736 346.734 50.8736 346.734C50.8736 346.734 40.3685 331.137 25.8334 330.705C25.8334 330.705 30.2345 316.592 59.6704 340.129C59.6704 340.129 52.3857 330.409 42.3883 327.112C42.3883 327.112 44.702 325.181 51.4124 326.717C51.4124 326.717 44.8865 324.531 38.9124 325.749C38.9124 325.749 23.262 320.244 23.7874 332.561Z" fill="#B3B3B3"/>
<path d="M23.7872 332.561C25.1779 332.233 26.8185 332.623 26.8185 332.623C26.8185 332.623 16.6947 333.147 32.0894 350.285C32.0894 350.285 16.9122 337.592 23.7872 332.561Z" fill="#B3B3B3"/>
</g>
<g clip-path="url(#clip1_733_518)">
<path d="M420.373 500.579C420.373 500.579 432.87 505.67 440.324 490.142C440.324 490.142 445.747 482.369 440.049 468.666C440.049 468.666 445.568 456.733 428.052 450.81C428.052 450.81 418.824 448.077 414.7 454.047C414.7 454.047 394.122 450.795 391.677 465.565C391.677 465.565 390.302 474.708 393.131 478.379C393.131 478.379 386.287 490.331 394.295 495.366C394.295 495.366 398.724 498.57 407.238 497.747C407.238 497.747 410.097 501.804 420.373 500.579Z" fill="white"/>
<path d="M393.131 478.379C393.131 478.379 384.176 504.982 415.923 493.121C415.923 493.121 411.648 497.761 408.541 497.697C408.541 497.697 417.493 501.5 429.491 495.734C429.491 495.734 425.857 499.694 421.721 500.207C421.721 500.207 431.601 501.502 437.747 494.49C437.747 494.49 430.962 504.742 420.373 500.579C420.373 500.579 410.687 501.952 407.238 497.747C407.238 497.747 380.628 501.434 393.131 478.379Z" fill="#B3B3B3"/>
<path d="M393.131 478.379C393.131 478.379 393.418 478.8 394.716 478.022C394.716 478.022 394.158 479.069 396.715 482.225C396.715 482.225 395.856 473.874 398.598 467.861C398.598 467.861 396.581 469.07 395.849 470.969C395.849 470.969 396.176 471.173 395.071 470.246C395.071 470.246 396.874 476.233 393.131 478.379Z" fill="#B3B3B3"/>
<path d="M414.7 454.047C433.821 454.494 440.049 468.666 440.049 468.666C440.049 468.666 435.347 451.122 414.7 454.047Z" fill="#B3B3B3"/>
<path d="M436.014 480.2C436.014 480.2 436.563 473.271 435.639 466.475C435.639 466.475 438.975 475.543 436.014 480.2Z" fill="#B3B3B3"/>
<path d="M432.43 463.115C432.43 463.115 430.171 472.865 428.202 478.278C428.202 478.278 433.573 472.199 432.43 463.115Z" fill="#B3B3B3"/>
<path d="M428.133 461.189C428.133 461.189 423.714 469.209 421.38 472.039C421.38 472.039 425.989 468.846 428.133 461.189Z" fill="#B3B3B3"/>
</g>
<defs>
<radialGradient id="paint0_radial_733_518" cx="0" cy="0" r="1" gradientUnits="userSpaceOnUse" gradientTransform="translate(225 384.999) rotate(100.042) scale(48.7468 38.9753)">
<stop offset="0.375231" stop-color="#FAF9FC"/>
<stop offset="1" stop-color="#B5B1BF"/>
</radialGradient>
<radialGradient id="paint1_radial_733_518" cx="0" cy="0" r="1" gradientUnits="userSpaceOnUse" gradientTransform="translate(312.564 391.27) rotate(79.958) scale(48.7468 38.9753)">
<stop offset="0.375231" stop-color="#FAF9FC"/>
<stop offset="1" stop-color="#B5B1BF"/>
</radialGradient>
<clipPath id="clip0_733_518">
<rect width="80.3158" height="69.4076" fill="white" transform="matrix(-1 0 0 1 102.316 323)"/>
</clipPath>
<clipPath id="clip1_733_518">
<rect width="54.8599" height="54.8599" fill="white" transform="matrix(-0.926095 -0.377291 -0.377291 0.926095 452.503 460.698)"/>
</clipPath>
</defs>
</svg>
