<svg width="20" height="20" viewBox="0 0 20 20" fill="white" xmlns="http://www.w3.org/2000/svg">
<path d="M18.3335 18.3334C17.413 19.2539 15.9207 19.2539 15.0002 18.3334L1.66676 5.00022C0.74628 4.07975 0.746279 2.58738 1.66676 1.66691C2.58724 0.746446 4.07963 0.746446 5.00011 1.66691L18.3335 15.0001C19.254 15.9206 19.254 17.413 18.3335 18.3334Z" fill="white"/>
<path d="M1.66668 18.3334C2.58716 19.2539 4.07955 19.2539 5.00003 18.3334L18.3334 5.00022C19.2539 4.07975 19.2539 2.58738 18.3334 1.66691C17.413 0.746446 15.9206 0.746446 15.0001 1.66691L1.66668 15.0001C0.746198 15.9206 0.746198 17.413 1.66668 18.3334Z" fill="white"/>
</svg>
