<svg width="166" height="37" viewBox="0 0 166 37" fill="none" xmlns="http://www.w3.org/2000/svg">
<path d="M0 17.0526L22.6094 30.4332L44.6236 17.3435C44.6236 17.3435 37.7814 4.25391 22.6094 4.25391C7.43728 4.25391 0 17.0526 0 17.0526Z" fill="#67A8B4"/>
<path d="M22.6094 4.25391V30.4332L44.6237 17.3435C37.7814 5.69377 27.0717 4.25391 22.6094 4.25391Z" fill="#288597"/>
<path d="M22.6093 24.3101L0 17.0381L22.6093 30.4186V24.3101Z" fill="#4193A1"/>
<path d="M44.6237 17.3291L22.6094 30.4187V17.3291H44.6237Z" fill="#177081"/>
<path d="M47.2787 31.0669V35.5464H46.535V31.0669H45.1963L45.2632 30.4561H48.5505L48.4835 31.0669H47.2787Z" fill="#458896"/>
<path d="M49.9863 31.6402C50.1631 31.6264 50.3407 31.6535 50.5047 31.7191C50.6689 31.7848 50.8148 31.8873 50.9309 32.0184C51.129 32.3258 51.2371 32.6805 51.2433 33.0437C51.2433 33.2328 51.2433 33.4728 51.2433 33.7709L50.9384 33.8146H49.0121C49.0121 34.4254 49.1757 34.8108 49.5104 34.9708C49.691 35.0463 49.8867 35.0812 50.0831 35.0726C50.3775 35.0577 50.6647 34.9782 50.9235 34.8399L51.1317 35.2908C50.7606 35.5231 50.3303 35.649 49.8897 35.6544C48.8261 35.6544 48.2981 34.9999 48.2981 33.6909C48.2758 33.1752 48.4216 32.666 48.7145 32.2365C48.8595 32.042 49.0516 31.8857 49.2736 31.7817C49.4956 31.6775 49.7405 31.629 49.9863 31.6402ZM50.4326 32.4619C50.3508 32.3019 50.1723 32.222 49.8822 32.222C49.765 32.212 49.6472 32.233 49.5412 32.2829C49.4352 32.3328 49.3449 32.4098 49.2798 32.5056C49.145 32.742 49.0687 33.006 49.0567 33.2765H50.5441C50.5625 33.0004 50.5246 32.7235 50.4326 32.4619Z" fill="#458896"/>
<path d="M51.7708 32.2006C51.9033 32.0223 52.0781 31.8782 52.2802 31.7807C52.4824 31.6831 52.7056 31.6351 52.931 31.6407C53.1078 31.6161 53.2881 31.6337 53.4564 31.6919C53.6247 31.7502 53.7762 31.8473 53.8978 31.9751C54.0804 32.2621 54.1662 32.5978 54.1433 32.9351L53.4739 32.9787C53.491 32.7768 53.447 32.5745 53.3475 32.3969C53.2815 32.3311 53.2009 32.281 53.1119 32.2507C53.0228 32.2204 52.9278 32.2107 52.8343 32.2224C52.3385 32.2224 52.0905 32.7072 52.0905 33.6768C52.0905 34.6149 52.4178 35.0876 53.0871 35.0876C53.412 35.0794 53.7302 34.9971 54.0168 34.8476L54.2177 35.284C54.0612 35.4081 53.882 35.5018 53.6896 35.5603C53.4491 35.6348 53.1981 35.6717 52.9459 35.6694C51.8972 35.6694 51.3691 35.0148 51.3691 33.6986C51.3254 33.1692 51.467 32.641 51.7708 32.2006Z" fill="#458896"/>
<path d="M56.1369 31.641C56.2971 31.6334 56.4573 31.6571 56.6079 31.7108C56.7587 31.7645 56.8969 31.8471 57.0145 31.9537C57.1333 32.0862 57.2235 32.2408 57.2798 32.4083C57.336 32.5757 57.3571 32.7525 57.3418 32.9281V35.5461H56.6724V32.9864C56.6829 32.8883 56.6709 32.7892 56.6372 32.6964C56.6036 32.6034 56.5491 32.5191 56.4778 32.4493C56.4066 32.3796 56.3203 32.3264 56.2252 32.2935C56.1303 32.2606 56.0289 32.2489 55.9287 32.2592C55.6457 32.2838 55.3815 32.4078 55.1849 32.6081V35.5824H54.5156V32.8118L54.4561 31.801L54.999 31.7283L55.0957 32.1573C55.2086 32.0278 55.3447 31.9193 55.4973 31.8374C55.6883 31.7165 55.9095 31.6487 56.1369 31.641Z" fill="#458896"/>
<path d="M58.5833 31.8081C58.8372 31.6935 59.1142 31.6363 59.3939 31.6409C59.6528 31.6376 59.9085 31.6976 60.1377 31.8154C60.3451 31.922 60.5101 32.0935 60.6062 32.3026C60.7905 32.7379 60.8792 33.2061 60.8665 33.677C60.8806 34.1469 60.7512 34.6103 60.4947 35.0078C60.3617 35.2078 60.1734 35.3666 59.9517 35.4659C59.6981 35.5813 59.4208 35.6385 59.1411 35.6332C58.8823 35.635 58.627 35.5751 58.3973 35.4587C58.1914 35.3489 58.029 35.1748 57.9362 34.9641C57.7475 34.5328 57.6586 34.0659 57.676 33.597C57.6629 33.125 57.7923 32.6597 58.0478 32.259C58.1826 32.0652 58.3673 31.9097 58.5833 31.8081ZM59.9443 32.4844C59.8689 32.4044 59.7779 32.3401 59.6765 32.2953C59.5444 32.2429 59.4026 32.2181 59.2601 32.2226C59.1185 32.219 58.9782 32.2489 58.851 32.3099C58.7479 32.3583 58.6585 32.4307 58.5907 32.5207C58.522 32.6216 58.4763 32.7357 58.4568 32.8553C58.4092 33.0948 58.3868 33.3385 58.3899 33.5825C58.3899 33.837 58.3899 34.0188 58.3899 34.1424C58.3984 34.2657 58.4208 34.3876 58.4568 34.506C58.4855 34.6192 58.5416 34.7239 58.6204 34.8115C58.7064 34.9033 58.8128 34.9747 58.9314 35.0201C59.0501 35.0655 59.1777 35.0837 59.3047 35.0732C59.4462 35.0768 59.5866 35.0469 59.7137 34.986C59.8151 34.9382 59.9042 34.8686 59.974 34.7824C60.0426 34.6789 60.0883 34.5624 60.1079 34.4406C60.1555 34.2011 60.178 33.9574 60.1748 33.7134C60.1748 33.4588 60.1748 33.2771 60.1748 33.1607C60.1609 33.0353 60.136 32.9112 60.1004 32.7898C60.0699 32.6788 60.0168 32.575 59.9443 32.4844Z" fill="#458896"/>
<path d="M61.8932 34.3816C61.8838 34.5654 61.9039 34.7493 61.9527 34.927C62.0077 35.0774 62.0996 35.2123 62.2204 35.3197L61.7222 35.7051C61.5548 35.5549 61.4184 35.3747 61.3205 35.1742C61.2427 34.9397 61.21 34.6932 61.2238 34.447V30.142L61.8932 30.0693V34.3816Z" fill="#458896"/>
<path d="M63.1868 31.8081C63.4407 31.6935 63.7178 31.6363 63.9975 31.6409C64.2563 31.6376 64.512 31.6976 64.7412 31.8154C64.947 31.9242 65.1113 32.0951 65.2097 32.3026C65.394 32.7379 65.4827 33.2061 65.47 33.677C65.4842 34.1469 65.3547 34.6103 65.0982 35.0078C64.9653 35.2078 64.777 35.3666 64.5552 35.4659C64.3016 35.5813 64.0243 35.6385 63.7446 35.6332C63.4859 35.635 63.2306 35.5751 63.0009 35.4587C62.795 35.3489 62.6325 35.1748 62.5397 34.9641C62.351 34.5328 62.2622 34.0659 62.2795 33.597C62.2753 33.1221 62.4151 32.6565 62.6811 32.259C62.8076 32.069 62.9817 31.9139 63.1868 31.8081ZM64.5478 32.4844C64.4725 32.4044 64.3814 32.3401 64.2801 32.2953C64.148 32.2429 64.0061 32.2181 63.8636 32.2226C63.722 32.219 63.5817 32.2489 63.4545 32.3099C63.3514 32.3583 63.2621 32.4307 63.1942 32.5207C63.1255 32.6216 63.0799 32.7357 63.0603 32.8553C63.0128 33.0948 62.9903 33.3385 62.9934 33.5825C62.9934 33.837 62.9934 34.0188 62.9934 34.1424C63.0019 34.2657 63.0243 34.3876 63.0603 34.506C63.089 34.6192 63.1452 34.7239 63.2239 34.8115C63.3099 34.9033 63.4163 34.9747 63.535 35.0201C63.6536 35.0655 63.7813 35.0837 63.9082 35.0732C64.0497 35.0763 64.1899 35.0464 64.3172 34.986C64.4187 34.9382 64.5077 34.8686 64.5776 34.7824C64.6462 34.6789 64.6918 34.5624 64.7114 34.4406C64.7591 34.2011 64.7815 33.9574 64.7783 33.7134C64.7783 33.4588 64.7783 33.2771 64.7783 33.1607C64.7644 33.0353 64.7395 32.9112 64.704 32.7898C64.6734 32.6788 64.6203 32.575 64.5478 32.4844Z" fill="#458896"/>
<path d="M67.0992 31.6406H67.3H67.7388L68.8693 31.6843L68.7874 32.1061L68.2743 32.157C68.4002 32.3794 68.4643 32.6301 68.4602 32.8842C68.4693 33.0663 68.4396 33.2481 68.373 33.4184C68.3064 33.5886 68.2044 33.7435 68.0734 33.8732C67.7692 34.1303 67.3741 34.2608 66.9727 34.2368H66.6827C66.6128 34.2862 66.548 34.3422 66.4893 34.404C66.4609 34.4365 66.4451 34.4777 66.4447 34.5204C66.4447 34.6586 66.6009 34.7458 66.9132 34.7749L67.471 34.8258C67.7965 34.8286 68.1162 34.9111 68.4007 35.0658C68.5132 35.136 68.6043 35.2344 68.6645 35.3509C68.7247 35.4673 68.7517 35.5974 68.7428 35.7276C68.7519 35.9958 68.6532 36.2569 68.4676 36.4548C68.264 36.6398 68.0234 36.7818 67.7611 36.8719C67.4988 36.962 67.2202 36.9982 66.943 36.9783C65.9241 36.9783 65.4556 36.6802 65.4556 36.0767C65.4738 35.9299 65.5245 35.7889 65.6041 35.6634C65.6838 35.5378 65.7904 35.4306 65.9166 35.3494L65.991 35.2912L66.0654 35.2403L66.1175 35.204C66.0278 35.1588 65.953 35.0898 65.9017 35.0049C65.8504 34.92 65.8246 34.8226 65.8274 34.724C65.8206 34.6107 65.8578 34.499 65.9315 34.4114C66.0363 34.3016 66.1535 34.2039 66.2811 34.1205C66.072 34.0205 65.8993 33.8602 65.7862 33.6612C65.6732 33.4623 65.6252 33.2342 65.6489 33.0078C65.6382 32.8234 65.667 32.6389 65.7336 32.466C65.8003 32.2932 65.9032 32.1359 66.0357 32.0043C66.3277 31.7514 66.7096 31.6208 67.0992 31.6406ZM66.3555 36.353C66.5893 36.4535 66.8442 36.4984 67.0992 36.4839C67.3536 36.4909 67.6069 36.4463 67.8429 36.353C67.9332 36.3252 68.0121 36.2701 68.0683 36.1956C68.1244 36.121 68.1549 36.031 68.1553 35.9384C68.1611 35.8788 68.1512 35.8188 68.1264 35.764C68.1017 35.7092 68.063 35.6617 68.014 35.6258L67.8727 35.5458C67.8071 35.5151 67.7366 35.4954 67.6644 35.4876L67.0992 35.4294C66.9191 35.4179 66.7401 35.3936 66.5637 35.3567C66.4224 35.454 66.297 35.5717 66.1918 35.7058C66.1489 35.7789 66.1259 35.8615 66.1249 35.9457C66.1178 36.0266 66.1342 36.1078 66.1724 36.1799C66.2106 36.252 66.2689 36.312 66.3406 36.353H66.3555ZM67.0099 32.157C66.9102 32.1474 66.8094 32.16 66.7154 32.1941C66.6213 32.2281 66.5364 32.2825 66.467 32.3533C66.3493 32.5326 66.2945 32.7445 66.3108 32.957C66.3108 33.4951 66.5587 33.7641 67.0545 33.7641C67.155 33.7745 67.2567 33.7615 67.351 33.7261C67.4454 33.6907 67.5299 33.634 67.5975 33.5605C67.7148 33.3756 67.7695 33.1593 67.7537 32.9424C67.7701 32.8394 67.7621 32.7341 67.7304 32.6345C67.6988 32.5349 67.6443 32.4438 67.5711 32.368C67.4979 32.2922 67.4079 32.2338 67.3081 32.1972C67.2083 32.1606 67.1012 32.1469 66.995 32.157H67.0099Z" fill="#458896"/>
<path d="M69.2708 31.481C68.9659 31.481 68.8172 31.3211 68.8172 30.9866C68.8129 30.871 68.8557 30.7586 68.9362 30.6739C68.9875 30.6265 69.0485 30.5904 69.1152 30.5678C69.1819 30.5452 69.2527 30.5368 69.3229 30.543C69.6204 30.543 69.7766 30.7102 69.7766 31.0375C69.778 31.1539 69.7327 31.2662 69.6502 31.3502C69.6 31.397 69.5403 31.4328 69.4748 31.4553C69.4095 31.4779 69.3399 31.4866 69.2708 31.481ZM69.6353 35.5461H68.9659V31.7647L69.6353 31.6919V35.5461Z" fill="#458896"/>
<path d="M71.9852 32.8842C71.9852 32.4406 71.7769 32.2224 71.3679 32.2224C71.0051 32.2392 70.6468 32.3078 70.3044 32.4261L70.0664 31.968C70.4929 31.7491 70.9681 31.6367 71.4497 31.6407C72.0447 31.6407 72.4165 31.8152 72.5504 32.1643C72.6282 32.3989 72.6634 32.645 72.6545 32.8915V34.4404C72.645 34.5916 72.6671 34.7432 72.7195 34.8857C72.7719 35.0282 72.8536 35.1588 72.9595 35.2695L72.5653 35.6476C72.4627 35.5832 72.37 35.5049 72.2901 35.4149C72.208 35.3234 72.1448 35.2172 72.1042 35.1022C71.9765 35.2773 71.8064 35.4189 71.6091 35.514C71.4119 35.6092 71.1935 35.6551 70.9737 35.6476C70.23 35.6476 69.9102 35.2912 69.9102 34.564C69.9102 33.8368 70.3713 33.5387 71.2935 33.4078L72.0373 33.306L71.9852 32.8842ZM70.6018 34.6295C70.6018 34.9131 70.7803 35.0513 71.1299 35.0513C71.2911 35.0566 71.4516 35.0267 71.5995 34.9638C71.7474 34.9009 71.8792 34.8066 71.9852 34.6877V33.8005C71.5846 33.8191 71.1922 33.9182 70.8324 34.0914C70.754 34.1575 70.6924 34.2406 70.6524 34.334C70.6124 34.4273 70.5951 34.5285 70.6018 34.6295Z" fill="#458896"/>
<path d="M75.3915 32.2006C75.5239 32.0223 75.6988 31.8782 75.9007 31.7807C76.1034 31.6831 76.3262 31.6351 76.552 31.6407C76.7285 31.6161 76.9087 31.6337 77.0769 31.6919C77.2452 31.7502 77.397 31.8473 77.5189 31.9751C77.7013 32.2621 77.7873 32.5978 77.7641 32.9351L77.0949 32.9787C77.1121 32.7768 77.068 32.5745 76.9685 32.3969C76.9027 32.3311 76.822 32.281 76.733 32.2507C76.644 32.2204 76.5483 32.2107 76.4548 32.2224C75.9344 32.2224 75.6742 32.7072 75.6742 33.6768C75.6742 34.6149 76.0017 35.0876 76.6709 35.0876C76.9954 35.0794 77.314 34.9971 77.6004 34.8476L77.8015 35.284C77.6437 35.4065 77.465 35.5001 77.2728 35.5603C77.0328 35.6348 76.7816 35.6717 76.5296 35.6694C75.473 35.6694 74.9526 35.0148 74.9526 33.6986C74.9197 33.165 75.0745 32.6363 75.3915 32.2006Z" fill="#458896"/>
<path d="M78.7237 31.8079C78.978 31.6932 79.2546 31.636 79.5343 31.6406C79.8057 31.6311 80.0749 31.6912 80.3149 31.8151C80.5213 31.924 80.6851 32.0948 80.7838 32.3023C80.9685 32.7376 81.0567 33.2059 81.044 33.6767C81.0582 34.1466 80.9288 34.61 80.6724 35.0076C80.537 35.2057 80.3493 35.3641 80.1295 35.4657C79.876 35.5811 79.5986 35.6383 79.3189 35.6329C79.0475 35.6408 78.7783 35.5808 78.5375 35.4584C78.3319 35.3486 78.1697 35.1746 78.0769 34.9639C77.8878 34.5325 77.7988 34.0657 77.8167 33.5967C77.7995 33.1243 77.9296 32.658 78.1883 32.2588C78.3229 32.0649 78.5076 31.9095 78.7237 31.8079ZM80.0846 32.4842C80.0091 32.4042 79.9186 32.3399 79.8169 32.2951C79.6846 32.2426 79.5433 32.2178 79.4004 32.2223C79.2591 32.2188 79.1185 32.2487 78.9914 32.3097C78.8882 32.3581 78.7993 32.4304 78.7312 32.5205C78.6624 32.6214 78.6168 32.7355 78.5974 32.855C78.5495 33.0946 78.5271 33.3383 78.5301 33.5822C78.5301 33.8368 78.5301 34.0185 78.5301 34.1422C78.539 34.2654 78.5615 34.3874 78.5974 34.5058C78.6258 34.6189 78.6819 34.7237 78.7611 34.8112C78.8471 34.9031 78.9533 34.9745 79.0722 35.0198C79.1903 35.0653 79.3182 35.0834 79.4453 35.073C79.5866 35.076 79.7265 35.0461 79.8543 34.9857C79.9553 34.938 80.0443 34.8684 80.1145 34.7822C80.1833 34.6786 80.229 34.5621 80.2484 34.4403C80.2963 34.2008 80.3187 33.9571 80.3149 33.7131C80.3149 33.4586 80.3149 33.2768 80.3149 33.1604C80.3015 33.035 80.2761 32.9109 80.2409 32.7896C80.2103 32.6786 80.1572 32.5747 80.0846 32.4842Z" fill="#458896"/>
<path d="M82.0184 32.1199C82.1298 31.9622 82.2801 31.8352 82.4558 31.7511C82.6323 31.667 82.8267 31.6288 83.0226 31.64C83.2148 31.6246 83.4077 31.6638 83.5774 31.7528C83.7479 31.8418 83.8885 31.9768 83.982 32.1418C84.1121 31.9758 84.2818 31.8433 84.4762 31.7559C84.6706 31.6685 84.8838 31.6286 85.0976 31.64C85.2546 31.631 85.4124 31.6571 85.5582 31.7163C85.7033 31.7755 85.8334 31.8663 85.9381 31.9818C86.1445 32.2542 86.2469 32.5886 86.2282 32.9271V35.5451H85.5582V32.9853C85.5582 32.4836 85.3354 32.2581 84.8965 32.2581C84.7522 32.2488 84.6086 32.2761 84.4777 32.3373C84.3476 32.3984 84.2355 32.4913 84.1532 32.6071V35.5814H83.5057V32.9853C83.5057 32.4836 83.2828 32.2581 82.8439 32.2581C82.6996 32.2488 82.5553 32.2761 82.4252 32.3373C82.2951 32.3984 82.1829 32.4913 82.1006 32.6071V35.5814H81.4307V32.8108L81.3716 31.7999L81.9144 31.7273L82.0109 32.1563L82.0184 32.1199Z" fill="#458896"/>
<path d="M87.4777 31.8081C87.7312 31.6935 88.0086 31.6363 88.2883 31.6409C88.547 31.6376 88.8027 31.6976 89.0323 31.8154C89.2379 31.9242 89.4024 32.0951 89.5004 32.3026C89.6851 32.7379 89.7733 33.2061 89.7606 33.677C89.7748 34.1469 89.6454 34.6103 89.389 35.0078C89.2536 35.206 89.0659 35.3643 88.8461 35.4659C88.5926 35.5813 88.3152 35.6385 88.0355 35.6332C87.7768 35.635 87.5211 35.5751 87.2915 35.4587C87.0859 35.3489 86.9236 35.1748 86.8302 34.9641C86.6417 34.5328 86.5528 34.0659 86.57 33.597C86.5535 33.1246 86.6829 32.6582 86.9423 32.259C87.0769 32.0652 87.2616 31.9097 87.4777 31.8081ZM88.8386 32.4844C88.7631 32.4044 88.6719 32.3401 88.5709 32.2953C88.4386 32.2429 88.2965 32.2181 88.1544 32.2226C88.0131 32.219 87.8725 32.2489 87.7454 32.3099C87.6422 32.3583 87.5525 32.4307 87.4852 32.5207C87.4164 32.6216 87.3708 32.7357 87.3514 32.8553C87.3035 33.0948 87.2811 33.3385 87.2841 33.5825C87.2841 33.837 87.2841 34.0188 87.2841 34.1424C87.2923 34.2657 87.3147 34.3876 87.3514 34.506C87.3798 34.6192 87.4359 34.7239 87.5144 34.8115C87.6004 34.9033 87.7073 34.9747 87.8254 35.0201C87.9443 35.0655 88.0722 35.0837 88.1993 35.0732C88.3406 35.0763 88.4805 35.0464 88.6083 34.986C88.7093 34.9382 88.7982 34.8686 88.8685 34.7824C88.9366 34.6789 88.9822 34.5624 89.0024 34.4406C89.0495 34.2011 89.0719 33.9574 89.0689 33.7134C89.0689 33.4588 89.0689 33.2771 89.0689 33.1607C89.0555 33.0353 89.0301 32.9112 88.9949 32.7898C88.9642 32.6788 88.9112 32.575 88.8386 32.4844Z" fill="#458896"/>
<path d="M94.208 31.8732V31.6841V30.1352L94.8772 30.0625V34.5057L94.937 35.5165L94.3942 35.5893L94.3119 35.1456C94.1826 35.3013 94.0195 35.4265 93.8341 35.5121C93.6487 35.5976 93.446 35.6414 93.2411 35.6401C93.0527 35.6474 92.865 35.6124 92.6923 35.5381C92.5196 35.4638 92.3663 35.3519 92.2444 35.211C91.9483 34.752 91.8174 34.2095 91.8728 33.6694C91.8675 33.3945 91.9027 33.1203 91.9767 32.855C92.0283 32.6465 92.1195 32.4492 92.2444 32.2732C92.3476 32.1307 92.4762 32.0076 92.6235 31.9096C92.871 31.7368 93.1679 31.6451 93.4714 31.6478C93.7354 31.642 93.9941 31.7212 94.208 31.8732ZM93.5088 32.2223C93.3922 32.218 93.2763 32.2353 93.1671 32.2732C93.0572 32.3086 92.9585 32.3684 92.877 32.4477C92.7484 32.6105 92.6542 32.7963 92.5988 32.9948C92.5442 33.1931 92.53 33.4001 92.5569 33.604C92.5211 33.9999 92.5898 34.3982 92.7573 34.7602C92.8336 34.8599 92.9338 34.939 93.0497 34.9899C93.1656 35.0408 93.2927 35.0619 93.4198 35.0511C93.5821 35.0513 93.7429 35.0139 93.8879 34.9421C94.0091 34.8786 94.1167 34.7949 94.208 34.6948V32.4259C93.9986 32.2991 93.7541 32.2405 93.5088 32.2587V32.2223Z" fill="#458896"/>
<path d="M95.8143 31.481C95.51 31.481 95.3612 31.3211 95.3612 30.9866C95.3567 30.871 95.3993 30.7586 95.4801 30.6739C95.5309 30.6265 95.5922 30.5904 95.6588 30.5678C95.7253 30.5452 95.7964 30.5368 95.8666 30.543C96.1642 30.543 96.3205 30.7102 96.3205 31.0375C96.322 31.1539 96.2764 31.2662 96.1942 31.3502C96.1441 31.397 96.0842 31.4328 96.0184 31.4553C95.9534 31.4779 95.8838 31.4866 95.8143 31.481ZM96.1792 35.5461H95.51V31.7647L96.1792 31.6919V35.5461Z" fill="#458896"/>
<path d="M96.8931 31.3788C96.8737 31.1882 96.8983 30.9958 96.9656 30.8159C97.0322 30.6359 97.1398 30.473 97.2797 30.3389C97.5534 30.1241 97.8958 30.0108 98.2465 30.019C98.5262 30.0192 98.8043 30.071 99.0645 30.1717L98.9307 30.6589C98.7475 30.619 98.5606 30.597 98.3729 30.5934C98.2652 30.5837 98.1568 30.5969 98.0543 30.6324C97.9526 30.6677 97.8599 30.7245 97.7829 30.7986C97.7059 30.8726 97.6461 30.9623 97.6079 31.0613C97.5698 31.1602 97.5541 31.2661 97.5623 31.3715V31.7279H98.7004L98.6107 32.2806H97.5623V35.5457H96.8931V32.2587H96.3203L96.3943 31.7497L96.8931 31.7061V31.3788Z" fill="#458896"/>
<path d="M100.15 31.6402C100.327 31.6264 100.505 31.6535 100.669 31.7191C100.833 31.7848 100.979 31.8873 101.095 32.0184C101.293 32.3258 101.401 32.6805 101.407 33.0437C101.407 33.2328 101.407 33.4728 101.407 33.7709L101.102 33.8146H99.1985C99.1985 34.4254 99.3623 34.8108 99.6965 34.9708C99.8775 35.0463 100.073 35.0812 100.269 35.0726C100.564 35.0567 100.851 34.9773 101.11 34.8399L101.318 35.2908C100.947 35.5231 100.517 35.649 100.076 35.6544C99.0123 35.6544 98.4844 34.9999 98.4844 33.6909C98.4583 33.1748 98.6048 32.6644 98.9009 32.2365C99.0437 32.0452 99.2322 31.8908 99.4498 31.7868C99.6681 31.6829 99.9081 31.6326 100.15 31.6402ZM100.597 32.4619C100.515 32.3019 100.337 32.222 100.046 32.222C99.9291 32.212 99.8109 32.233 99.7055 32.2829C99.5993 32.3328 99.5088 32.4098 99.4438 32.5056C99.3092 32.742 99.2329 33.006 99.221 33.2765H100.708C100.731 33.0013 100.699 32.7246 100.612 32.4619H100.597Z" fill="#458896"/>
<path d="M103.349 31.6399C103.445 31.6252 103.542 31.6252 103.639 31.6399L103.81 31.6908H103.891L103.773 32.3453C103.599 32.2921 103.418 32.2676 103.237 32.2725C103.13 32.2745 103.026 32.2989 102.929 32.344C102.833 32.3892 102.747 32.4541 102.679 32.5343C102.599 32.6165 102.536 32.7134 102.494 32.8195C102.451 32.9256 102.431 33.0387 102.434 33.1525V35.4868H101.764V32.7162L101.705 31.7053L102.248 31.6326L102.329 32.3598C102.398 32.1394 102.53 31.9426 102.709 31.7926C102.895 31.6639 103.124 31.6092 103.349 31.6399Z" fill="#458896"/>
<path d="M105.327 31.6402C105.504 31.6264 105.681 31.6535 105.845 31.7191C106.009 31.7848 106.156 31.8873 106.272 32.0184C106.47 32.3258 106.577 32.6805 106.584 33.0437C106.584 33.2328 106.584 33.4728 106.584 33.7709L106.279 33.8146H104.353C104.353 34.4254 104.517 34.8108 104.851 34.9708C105.032 35.0463 105.227 35.0812 105.424 35.0726C105.718 35.0567 106.005 34.9773 106.264 34.8399L106.472 35.2908C106.101 35.5231 105.671 35.649 105.23 35.6544C104.167 35.6544 103.639 34.9999 103.639 33.6909C103.613 33.1748 103.759 32.6644 104.055 32.2365C104.2 32.042 104.392 31.8857 104.614 31.7817C104.836 31.6775 105.081 31.629 105.327 31.6402ZM105.773 32.4619C105.691 32.3019 105.505 32.222 105.222 32.222C105.106 32.212 104.988 32.233 104.881 32.2829C104.776 32.3328 104.686 32.4098 104.621 32.5056C104.486 32.742 104.409 33.006 104.397 33.2765H105.885C105.903 33.0004 105.865 32.7235 105.773 32.4619Z" fill="#458896"/>
<path d="M108.622 31.641C108.782 31.6334 108.942 31.6571 109.093 31.7108C109.243 31.7645 109.381 31.8471 109.5 31.9537C109.618 32.0862 109.708 32.2408 109.764 32.4083C109.821 32.5757 109.842 32.7525 109.826 32.9281V35.5461H109.157V32.9864C109.168 32.8883 109.156 32.7892 109.122 32.6964C109.088 32.6034 109.034 32.5191 108.963 32.4493C108.892 32.3796 108.805 32.3264 108.71 32.2935C108.615 32.2606 108.513 32.2489 108.413 32.2592C108.117 32.275 107.838 32.3997 107.632 32.6081V35.5824H106.963V32.8118L106.903 31.801L107.446 31.7283L107.543 32.1573C107.656 32.0278 107.792 31.9193 107.945 31.8374C108.146 31.7093 108.382 31.641 108.622 31.641Z" fill="#458896"/>
<path d="M110.593 32.2002C110.725 32.0218 110.9 31.8778 111.102 31.7802C111.304 31.6827 111.527 31.6346 111.752 31.6402C111.93 31.6162 112.109 31.6341 112.277 31.6924C112.445 31.7505 112.597 31.8474 112.719 31.9747C112.902 32.2617 112.988 32.5974 112.964 32.9346L112.295 32.9783C112.312 32.7764 112.268 32.5741 112.169 32.3965C112.103 32.3306 112.022 32.2805 111.933 32.2503C111.844 32.2199 111.749 32.2103 111.656 32.2219C111.16 32.2219 110.912 32.7068 110.912 33.6763C110.912 34.6144 111.239 35.0871 111.909 35.0871C112.233 35.0788 112.552 34.9967 112.838 34.8472L113.039 35.2835C112.881 35.406 112.703 35.4996 112.511 35.5598C112.271 35.6344 112.019 35.6712 111.767 35.6689C110.711 35.6689 110.19 35.0144 110.19 33.6982C110.147 33.1688 110.288 32.6405 110.593 32.2002Z" fill="#458896"/>
<path d="M113.582 31.481C113.277 31.481 113.128 31.3211 113.128 30.9866C113.124 30.871 113.167 30.7586 113.247 30.6739C113.299 30.6265 113.359 30.5904 113.427 30.5678C113.493 30.5452 113.564 30.5368 113.634 30.543C113.931 30.543 114.088 30.7102 114.088 31.0375C114.089 31.1539 114.043 31.2662 113.961 31.3502C113.911 31.397 113.851 31.4328 113.786 31.4553C113.72 31.4779 113.651 31.4866 113.582 31.481ZM113.946 35.5461H113.255V31.7647L113.924 31.6919L113.946 35.5461Z" fill="#458896"/>
<path d="M116.297 32.8842C116.297 32.4406 116.089 32.2224 115.68 32.2224C115.317 32.2392 114.959 32.3078 114.616 32.4261L114.378 31.968C114.805 31.7491 115.28 31.6367 115.761 31.6407C116.357 31.6407 116.728 31.8152 116.862 32.1643C116.94 32.3989 116.975 32.645 116.967 32.8915V34.4404C116.957 34.5916 116.979 34.7432 117.031 34.8857C117.084 35.0282 117.166 35.1588 117.271 35.2695L116.877 35.6476C116.774 35.5832 116.682 35.5049 116.602 35.4149C116.52 35.3234 116.457 35.2172 116.416 35.1022C116.288 35.2773 116.118 35.4189 115.921 35.514C115.724 35.6092 115.506 35.6551 115.286 35.6476C114.542 35.6476 114.222 35.2912 114.222 34.564C114.222 33.8368 114.683 33.5387 115.605 33.4078L116.349 33.306L116.297 32.8842ZM114.913 34.6295C114.913 34.9131 115.085 35.0513 115.442 35.0513C115.603 35.0566 115.764 35.0267 115.912 34.9638C116.059 34.9009 116.191 34.8066 116.297 34.6877V33.8005C115.897 33.8191 115.504 33.9182 115.144 34.0914C115.066 34.1575 115.005 34.2406 114.964 34.334C114.925 34.4273 114.907 34.5285 114.913 34.6295Z" fill="#458896"/>
<path d="M118.215 34.3816C118.206 34.5654 118.226 34.7493 118.275 34.927C118.33 35.0774 118.422 35.2123 118.543 35.3197L118.045 35.7051C117.877 35.5549 117.74 35.3747 117.642 35.1742C117.565 34.9397 117.532 34.6932 117.546 34.447V30.142L118.215 30.0693V34.3816Z" fill="#458896"/>
<path d="M121.384 32.1354C121.512 31.9786 121.675 31.8525 121.861 31.7668C122.047 31.6811 122.25 31.638 122.455 31.6409C122.647 31.6323 122.838 31.6687 123.013 31.7471C123.188 31.8256 123.34 31.9438 123.459 32.0918C123.744 32.5577 123.871 33.0998 123.824 33.6407C123.831 33.972 123.778 34.3019 123.667 34.6152C123.589 34.8497 123.454 35.0619 123.273 35.2333C123 35.487 122.638 35.63 122.261 35.6333C121.976 35.6572 121.692 35.5741 121.466 35.4005V35.5823V36.8768L120.797 36.9495V32.768L120.737 31.7573L121.28 31.6845L121.354 32.1282L121.384 32.1354ZM121.466 34.8624C121.691 34.991 121.949 35.0564 122.21 35.0515C122.337 35.0567 122.463 35.0316 122.579 34.9784C122.694 34.9252 122.795 34.8455 122.872 34.7461C123.064 34.3938 123.146 33.9945 123.109 33.5971C123.109 32.928 122.976 32.499 122.723 32.3317C122.602 32.2587 122.463 32.2208 122.321 32.2227C122.159 32.2123 121.998 32.2399 121.849 32.3032C121.7 32.3664 121.568 32.4635 121.466 32.5862V34.8624Z" fill="#458896"/>
<path d="M125.898 32.8842C125.898 32.4406 125.69 32.2224 125.281 32.2224C124.918 32.2392 124.56 32.3078 124.217 32.4261L123.98 31.968C124.406 31.7491 124.881 31.6367 125.363 31.6407C125.958 31.6407 126.33 31.8152 126.464 32.1643C126.541 32.3989 126.576 32.645 126.567 32.8915V34.4404C126.558 34.5916 126.58 34.7432 126.633 34.8857C126.685 35.0282 126.766 35.1588 126.873 35.2695L126.478 35.6476C126.376 35.5832 126.283 35.5049 126.203 35.4149C126.121 35.3234 126.058 35.2172 126.017 35.1022C125.889 35.2773 125.72 35.4189 125.522 35.514C125.325 35.6092 125.106 35.6551 124.887 35.6476C124.143 35.6476 123.823 35.2912 123.823 34.564C123.823 33.8368 124.285 33.5387 125.207 33.4078L125.951 33.306L125.898 32.8842ZM124.515 34.6295C124.515 34.9131 124.694 35.0513 125.043 35.0513C125.204 35.0566 125.364 35.0267 125.512 34.9638C125.66 34.9009 125.792 34.8066 125.898 34.6877V33.8005C125.497 33.8191 125.105 33.9182 124.745 34.0914C124.67 34.159 124.611 34.2426 124.573 34.3359C124.536 34.4292 124.521 34.5296 124.53 34.6295H124.515Z" fill="#458896"/>
<path d="M128.799 31.6399C128.895 31.6252 128.992 31.6252 129.089 31.6399L129.26 31.6908H129.342L129.223 32.3453C129.049 32.2921 128.868 32.2676 128.687 32.2725C128.58 32.2745 128.475 32.2989 128.379 32.344C128.283 32.3892 128.198 32.4541 128.13 32.5343C128.049 32.6165 127.986 32.7134 127.943 32.8195C127.902 32.9256 127.881 33.0387 127.884 33.1525V35.4868H127.214V32.7162L127.155 31.7053L127.698 31.6326L127.78 32.3598C127.848 32.1394 127.98 31.9426 128.16 31.7926C128.345 31.6639 128.574 31.6092 128.799 31.6399Z" fill="#458896"/>
<path d="M131.104 32.8842C131.104 32.4406 130.896 32.2224 130.487 32.2224C130.125 32.2392 129.766 32.3078 129.424 32.4261L129.186 31.968C129.613 31.7491 130.087 31.6367 130.569 31.6407C131.164 31.6407 131.536 31.8152 131.67 32.1643C131.747 32.3989 131.782 32.645 131.774 32.8915V34.4404C131.765 34.5916 131.786 34.7432 131.839 34.8857C131.892 35.0282 131.973 35.1588 132.079 35.2695L131.685 35.6476C131.581 35.5852 131.488 35.5066 131.409 35.4149C131.327 35.3234 131.264 35.2172 131.224 35.1022C131.096 35.2773 130.926 35.4189 130.728 35.514C130.532 35.6092 130.313 35.6551 130.093 35.6476C129.349 35.6476 129.029 35.2912 129.029 34.564C129.029 33.8368 129.491 33.5387 130.413 33.4078L131.157 33.306L131.104 32.8842ZM129.721 34.6295C129.721 34.9131 129.892 35.0513 130.25 35.0513C130.41 35.0566 130.571 35.0267 130.719 34.9638C130.867 34.9009 130.999 34.8066 131.104 34.6877V33.8005C130.704 33.8191 130.312 33.9182 129.952 34.0914C129.871 34.1561 129.806 34.2384 129.764 34.3319C129.721 34.4254 129.702 34.5273 129.706 34.6295H129.721Z" fill="#458896"/>
<path d="M134.02 32.739C134.015 32.5874 134.045 32.4367 134.108 32.2982C134.172 32.1596 134.266 32.0369 134.384 31.9391C134.649 31.7324 134.982 31.6265 135.322 31.641C135.642 31.6221 135.957 31.7206 136.206 31.9173C136.313 32.0087 136.401 32.1202 136.463 32.245C136.526 32.3699 136.563 32.5057 136.571 32.6445L135.879 32.7826C135.879 32.626 135.818 32.4752 135.708 32.3609C135.589 32.2712 135.442 32.2227 135.292 32.2227C135.141 32.2227 134.995 32.2712 134.875 32.3609C134.832 32.3965 134.796 32.441 134.772 32.4912C134.747 32.5414 134.735 32.5962 134.734 32.6517C134.731 32.7496 134.751 32.8466 134.793 32.9354C134.842 33.0162 134.911 33.0838 134.994 33.1317C135.15 33.2346 135.317 33.32 135.492 33.3863C135.65 33.4455 135.804 33.5134 135.954 33.5898C136.072 33.6519 136.187 33.7224 136.296 33.8007C136.416 33.8815 136.512 33.9905 136.577 34.1177C136.642 34.2448 136.674 34.3859 136.668 34.5279C136.667 34.6809 136.632 34.8318 136.566 34.9701C136.499 35.1084 136.401 35.2306 136.281 35.3279C135.992 35.5587 135.627 35.6755 135.254 35.6551C134.808 35.6458 134.374 35.5093 134.005 35.2624L134.265 34.7825C134.6 34.9454 134.963 35.0441 135.337 35.0734C135.746 35.0734 135.954 34.9206 135.954 34.6079C135.953 34.5388 135.934 34.471 135.9 34.4102C135.867 34.3494 135.819 34.2976 135.76 34.2589C135.602 34.1457 135.429 34.0528 135.247 33.9825L134.779 33.7716C134.653 33.7064 134.534 33.631 134.421 33.5462C134.29 33.4562 134.184 33.3348 134.113 33.1936C134.043 33.0523 134.011 32.8959 134.02 32.739Z" fill="#458896"/>
<path d="M138.356 31.6408C138.532 31.6258 138.71 31.6523 138.875 31.7181C139.039 31.7838 139.185 31.8869 139.3 32.019C139.504 32.3235 139.614 32.68 139.613 33.0443C139.613 33.2334 139.613 33.4733 139.613 33.7715L139.308 33.8152H137.389C137.389 34.4259 137.553 34.8114 137.887 34.9714C138.068 35.0469 138.264 35.0817 138.46 35.0732C138.752 35.0582 139.037 34.9787 139.293 34.8405L139.501 35.2913C139.13 35.5247 138.7 35.6508 138.259 35.6549C137.203 35.6549 136.675 35.0005 136.675 33.6915C136.649 33.1753 136.795 32.665 137.091 32.2371C137.236 32.0436 137.426 31.888 137.647 31.7839C137.868 31.6799 138.111 31.6307 138.356 31.6408ZM138.802 32.4625C138.727 32.3025 138.542 32.2225 138.259 32.2225C138.142 32.2109 138.023 32.2312 137.917 32.2813C137.811 32.3313 137.72 32.4092 137.657 32.5062C137.519 32.7419 137.44 33.0059 137.426 33.2769H138.914C138.937 33.0008 138.899 32.723 138.802 32.4625Z" fill="#458896"/>
<path d="M141.093 35.6331C140.784 35.6428 140.485 35.533 140.26 35.3277C140.142 35.2003 140.052 35.0507 139.996 34.8881C139.94 34.7255 139.918 34.5534 139.933 34.3824V31.7572L140.602 31.6918V34.3024C140.602 34.8041 140.847 35.0296 141.345 35.0296C141.5 35.0324 141.653 35.0035 141.795 34.9446C141.938 34.8857 142.065 34.7982 142.171 34.6878V31.7353L142.84 31.6699V34.4769L142.9 35.4877L142.357 35.5604L142.261 35.1678C142.118 35.3307 141.938 35.458 141.734 35.5389C141.531 35.6199 141.311 35.6522 141.093 35.6331Z" fill="#458896"/>
<path d="M147.065 31.6405C147.225 31.6316 147.386 31.6548 147.537 31.7085C147.688 31.7623 147.825 31.8456 147.943 31.9532C148.063 32.0848 148.154 32.2393 148.211 32.407C148.267 32.5747 148.287 32.7519 148.27 32.9277V35.5456H147.6V32.9858C147.611 32.8878 147.599 32.7887 147.565 32.6958C147.532 32.6029 147.477 32.5185 147.406 32.4488C147.335 32.3791 147.248 32.3259 147.153 32.293C147.058 32.2601 146.957 32.2484 146.856 32.2586C146.704 32.2603 146.554 32.2976 146.418 32.3677C146.289 32.4253 146.173 32.5068 146.076 32.6077V35.582H145.407V32.8113L145.347 31.8005L145.89 31.7278L145.987 32.1568C146.103 32.0273 146.241 31.919 146.396 31.8368C146.595 31.7097 146.827 31.6416 147.065 31.6405Z" fill="#458896"/>
<path d="M150.271 31.6408C150.447 31.6258 150.625 31.6523 150.789 31.7181C150.954 31.7838 151.1 31.8869 151.215 32.019C151.419 32.3235 151.528 32.68 151.527 33.0443C151.527 33.2334 151.527 33.4733 151.527 33.7715L151.222 33.8152H149.296C149.296 34.4259 149.467 34.8114 149.794 34.9714C149.975 35.0453 150.171 35.08 150.367 35.0732C150.662 35.0593 150.949 34.9797 151.207 34.8405L151.415 35.2913C151.045 35.5247 150.614 35.6508 150.173 35.6549C149.117 35.6549 148.582 35.0005 148.582 33.6915C148.558 33.1745 148.707 32.6641 149.006 32.2371C149.147 32.0402 149.337 31.8819 149.559 31.7775C149.78 31.6731 150.025 31.626 150.271 31.6408ZM150.716 32.4625C150.642 32.3025 150.456 32.2225 150.173 32.2225C150.055 32.2111 149.936 32.2316 149.829 32.2815C149.721 32.3315 149.63 32.4092 149.564 32.5062C149.429 32.7426 149.352 33.0066 149.34 33.2769H150.828C150.85 33.0009 150.813 32.7232 150.716 32.4625Z" fill="#458896"/>
<path d="M153.104 31.6406H153.312H153.744L154.874 31.6842L154.792 32.106L154.279 32.1569C154.409 32.3779 154.473 32.6296 154.465 32.8841C154.476 33.0663 154.447 33.2488 154.38 33.4193C154.314 33.5898 154.21 33.7445 154.078 33.8731C153.775 34.1316 153.379 34.2623 152.977 34.2367H152.687C152.619 34.2882 152.555 34.344 152.494 34.404C152.466 34.4364 152.45 34.4776 152.45 34.5203C152.45 34.6585 152.606 34.7458 152.918 34.7749L153.476 34.8258C153.804 34.8289 154.126 34.9113 154.413 35.0657C154.524 35.1368 154.613 35.2356 154.673 35.352C154.732 35.4683 154.757 35.598 154.747 35.7275C154.754 35.8605 154.732 35.9934 154.685 36.1183C154.638 36.2432 154.566 36.3576 154.472 36.4547C154.269 36.6401 154.029 36.7823 153.766 36.8724C153.504 36.9625 153.225 36.9986 152.948 36.9783C151.937 36.9783 151.423 36.6801 151.423 36.0765C151.443 35.9303 151.494 35.7898 151.574 35.6644C151.653 35.5391 151.759 35.4316 151.884 35.3493C151.909 35.3262 151.936 35.3066 151.966 35.2912L152.033 35.2402L152.085 35.2039C151.996 35.1587 151.921 35.0897 151.869 35.0048C151.818 34.9199 151.792 34.8225 151.795 34.7239C151.806 34.6176 151.854 34.5179 151.929 34.4403C152.035 34.3323 152.153 34.2349 152.278 34.1495C152.07 34.0486 151.898 33.8883 151.785 33.6895C151.672 33.4907 151.624 33.2631 151.646 33.0368C151.637 32.8526 151.667 32.6684 151.733 32.4957C151.8 32.3231 151.901 32.1657 152.033 32.0333C152.176 31.902 152.345 31.7997 152.528 31.7323C152.712 31.6649 152.908 31.6337 153.104 31.6406ZM152.361 36.3528C152.583 36.4487 152.824 36.4934 153.066 36.4837C153.321 36.49 153.574 36.4454 153.81 36.3528C153.899 36.3238 153.976 36.2682 154.032 36.1938C154.086 36.1194 154.115 36.03 154.115 35.9384C154.123 35.8786 154.113 35.818 154.089 35.763C154.064 35.708 154.024 35.6606 153.974 35.6256C153.932 35.5954 153.887 35.5686 153.84 35.5456C153.772 35.5157 153.699 35.4961 153.624 35.4875L153.066 35.4293C152.884 35.4181 152.703 35.3939 152.524 35.3566C152.384 35.4534 152.261 35.5712 152.159 35.7056C152.111 35.7768 152.085 35.8602 152.085 35.9456C152.082 36.032 152.107 36.1171 152.155 36.1897C152.202 36.2623 152.272 36.3192 152.353 36.3528H152.361ZM153.007 32.1569C152.909 32.1467 152.808 32.1593 152.716 32.1933C152.623 32.2274 152.539 32.2822 152.472 32.3533C152.349 32.5303 152.291 32.7433 152.308 32.9568C152.308 33.495 152.568 33.764 153.089 33.764C153.19 33.7757 153.291 33.7632 153.386 33.7278C153.481 33.6923 153.565 33.6348 153.632 33.5604C153.749 33.3756 153.804 33.1593 153.788 32.9423C153.806 32.8366 153.798 32.7283 153.764 32.6263C153.731 32.5243 153.674 32.4313 153.597 32.3549C153.52 32.2785 153.426 32.2207 153.322 32.1863C153.219 32.152 153.108 32.1419 153 32.1569H153.007Z" fill="#458896"/>
<path d="M157.031 35.4658C156.776 35.5804 156.5 35.6376 156.22 35.633C155.961 35.6363 155.705 35.5763 155.476 35.4584C155.268 35.3491 155.103 35.1751 155.007 34.964C154.822 34.5315 154.733 34.0655 154.747 33.5968C154.734 33.1248 154.864 32.6595 155.119 32.2587C155.258 32.0665 155.445 31.9115 155.662 31.8079C155.916 31.6925 156.193 31.6353 156.473 31.6406C156.744 31.6328 157.013 31.6929 157.253 31.8152C157.457 31.9244 157.619 32.0954 157.715 32.3024C157.902 32.7366 157.991 33.2056 157.975 33.6768C157.993 34.1471 157.863 34.6115 157.603 35.0076C157.463 35.2125 157.263 35.3719 157.031 35.4658ZM155.67 34.7895C155.743 34.8713 155.834 34.9359 155.937 34.9785C156.069 35.031 156.211 35.0557 156.354 35.0512C156.495 35.0548 156.636 35.0249 156.763 34.964C156.865 34.9181 156.954 34.8482 157.023 34.7604C157.081 34.6617 157.119 34.5531 157.134 34.4404C157.182 34.2009 157.205 33.9572 157.201 33.7132C157.211 33.5291 157.211 33.3446 157.201 33.1605C157.194 33.0348 157.171 32.9104 157.134 32.7896C157.105 32.677 157.048 32.5725 156.971 32.4842C156.885 32.3923 156.779 32.321 156.66 32.2755C156.542 32.2302 156.414 32.212 156.287 32.2224C156.145 32.2194 156.005 32.2493 155.878 32.3097C155.775 32.3595 155.686 32.4317 155.617 32.5206C155.549 32.6214 155.503 32.7354 155.483 32.8551C155.436 33.0946 155.413 33.3383 155.416 33.5823C155.416 33.8368 155.416 34.0186 155.416 34.1422C155.431 34.2652 155.456 34.3868 155.491 34.5058C155.522 34.6097 155.576 34.7062 155.647 34.7895H155.67ZM157.06 30.0771L157.455 30.5789L156.064 31.4298L155.751 31.0662L157.06 30.0771Z" fill="#458896"/>
<path d="M158.488 32.2002C158.621 32.0218 158.795 31.8778 158.998 31.7802C159.2 31.6827 159.424 31.6346 159.649 31.6402C159.825 31.6162 160.005 31.6341 160.174 31.6924C160.342 31.7505 160.494 31.8474 160.615 31.9747C160.792 32.2638 160.875 32.5984 160.853 32.9346L160.184 32.9783C160.205 32.7762 160.161 32.5728 160.058 32.3965C159.993 32.3292 159.913 32.2781 159.823 32.2478C159.734 32.2173 159.638 32.2085 159.545 32.2219C159.049 32.2219 158.789 32.7068 158.763 33.6763C158.763 34.6144 159.098 35.0871 159.76 35.0871C160.085 35.0797 160.404 34.9974 160.69 34.8472L160.891 35.2835C160.736 35.4096 160.556 35.5037 160.363 35.5598C160.123 35.6355 159.871 35.6723 159.619 35.6689C158.57 35.6689 158.043 35.0144 158.043 33.6982C158.011 33.1637 158.169 32.6349 158.488 32.2002Z" fill="#458896"/>
<path d="M161.471 31.4808C161.173 31.4808 161.017 31.3208 161.017 30.9863C161.016 30.8698 161.061 30.7576 161.143 30.6736C161.194 30.6268 161.253 30.591 161.319 30.5684C161.384 30.5458 161.454 30.537 161.523 30.5427C161.828 30.5427 161.976 30.7099 161.976 31.0372C161.981 31.1527 161.938 31.2651 161.858 31.3499C161.806 31.3972 161.745 31.4333 161.679 31.4559C161.612 31.4785 161.541 31.487 161.471 31.4808ZM161.835 35.5458H161.166V31.7644L161.835 31.6917V35.5458Z" fill="#458896"/>
<path d="M163.122 31.8076C163.376 31.6922 163.653 31.635 163.933 31.6403C164.204 31.6324 164.473 31.6925 164.713 31.8148C164.917 31.9241 165.079 32.0951 165.175 32.302C165.362 32.7363 165.451 33.2053 165.435 33.6765C165.453 34.1468 165.323 34.6112 165.063 35.0073C164.932 35.2067 164.747 35.3656 164.528 35.4654C164.274 35.5801 163.996 35.6372 163.717 35.6326C163.445 35.6422 163.176 35.582 162.936 35.4581C162.728 35.3488 162.563 35.1748 162.467 34.9636C162.282 34.5312 162.193 34.0651 162.207 33.5965C162.194 33.1245 162.324 32.6592 162.579 32.2585C162.718 32.0661 162.905 31.9112 163.122 31.8076ZM164.483 32.4839C164.406 32.4022 164.313 32.3377 164.208 32.2948C164.078 32.2423 163.939 32.2175 163.799 32.2221C163.655 32.2184 163.512 32.2484 163.382 32.3094C163.28 32.3592 163.191 32.4313 163.122 32.5203C163.053 32.6211 163.008 32.7352 162.988 32.8548C162.94 33.0943 162.918 33.338 162.921 33.582C162.921 33.8365 162.921 34.0183 162.921 34.1419C162.936 34.2648 162.961 34.3865 162.996 34.5055C163.024 34.6171 163.078 34.7213 163.151 34.8109C163.238 34.9023 163.344 34.9734 163.463 35.0188C163.581 35.0642 163.709 35.0826 163.836 35.0727C163.978 35.0772 164.118 35.0472 164.245 34.9854C164.348 34.9396 164.437 34.8696 164.505 34.7819C164.574 34.6783 164.619 34.5619 164.639 34.4401C164.686 34.2005 164.709 33.9568 164.706 33.7129C164.716 33.5287 164.716 33.3443 164.706 33.1602C164.698 33.0345 164.676 32.91 164.639 32.7893C164.609 32.6783 164.556 32.5744 164.483 32.4839Z" fill="#458896"/>
<path d="M160.943 27.4011L159.85 22.4635H152.278C151.825 23.2416 151.334 24.0705 150.791 24.9505C150.248 25.8304 149.757 26.6449 149.303 27.4011H144.313L157.217 6.21777H161.062L165.985 27.4011H160.943ZM158.154 12.2608L154.398 18.9292H159.314L158.154 12.2608Z" fill="#127083"/>
<path d="M68.6901 20.624C68.0406 22.7099 66.7177 24.534 64.9194 25.8235C62.8501 27.1753 60.3921 27.8431 57.9061 27.7288C56.3114 27.7983 54.7235 27.4862 53.2801 26.8197C52.1812 26.2822 51.2663 25.4433 50.6473 24.4054C50.0372 23.3362 49.7005 22.1387 49.6656 20.9148C49.6124 19.5169 49.7322 18.1178 50.0226 16.748C50.3015 15.3442 50.7277 13.9722 51.2944 12.6539C51.8447 11.364 52.6282 10.1815 53.6074 9.16327C54.6239 8.12046 55.8492 7.29366 57.207 6.73441C58.8462 6.09072 60.6026 5.78139 62.3684 5.82541C65.1351 5.82541 67.1705 6.44111 68.4745 7.67254C69.131 8.31915 69.6385 9.09556 69.963 9.94967C70.2875 10.8038 70.4215 11.7158 70.3561 12.6248H65.4995C65.3915 11.8172 64.9871 11.0755 64.3616 10.5377C63.6012 9.94893 62.6448 9.65626 61.6768 9.71598H61.3198C60.4126 9.69052 59.5132 9.88536 58.7018 10.2832C57.9832 10.6614 57.3507 11.1784 56.8426 11.803C56.311 12.4612 55.8893 13.1975 55.5931 13.9846C55.2763 14.8272 55.0276 15.6928 54.8494 16.5735C54.6748 17.4072 54.5703 18.2537 54.537 19.1041C54.4902 19.8612 54.5963 20.6197 54.8494 21.3366C55.0745 21.9817 55.5044 22.5397 56.0765 22.9292C56.8037 23.3718 57.6535 23.5827 58.5085 23.5327H59.0217C60.0345 23.5656 61.0286 23.2604 61.8404 22.6674C62.5719 22.1245 63.1671 21.4257 63.5808 20.624H68.6901Z" fill="#127083"/>
<path d="M89.619 10.8204H78.4035L77.5556 14.9509H88.0502L87.1649 19.0886H76.656L75.6219 23.91H87.1425L86.2646 27.3496H69.5757L74.1497 5.99902H90.5118L89.619 10.8204Z" fill="#127083"/>
<path d="M83.0813 0L79.7202 4.13778L84.7182 4.12323L88.9347 0.021816L83.0813 0Z" fill="#8BB7C2"/>
<path d="M92.5719 5.89062H97.4577L93.9852 23.1762H103.995L103.162 27.3213H88.2881L92.5719 5.89062Z" fill="#127083"/>
<path d="M121.741 5.84668L120.953 10.0645H114.133L110.853 27.6482H106.242L109.536 10.0645H102.694L103.482 5.84668H121.741Z" fill="#127083"/>
<path d="M127.311 5.91211L123.243 27.5682H118.587L122.655 5.91211H127.311Z" fill="#127083"/>
<path d="M146.276 20.6234C145.586 22.7404 144.21 24.5805 142.357 25.8665C140.497 27.1463 138.07 27.7863 135.075 27.7863C133.423 27.8555 131.776 27.5415 130.271 26.87C129.136 26.3351 128.185 25.4886 127.534 24.4338C126.905 23.3632 126.557 22.1562 126.523 20.9215C126.461 19.511 126.584 18.0986 126.888 16.7183C127.181 15.3049 127.624 13.9254 128.211 12.6023C128.785 11.2974 129.597 10.105 130.606 9.08269C131.664 8.02915 132.929 7.19559 134.325 6.63199C136.031 5.98723 137.85 5.67832 139.679 5.72299C142.56 5.72299 144.675 6.34111 146.023 7.57738C146.701 8.21963 147.227 8.99877 147.565 9.86036C147.903 10.722 148.044 11.6454 147.979 12.5659H142.335C142.118 11.9512 141.783 11.3832 141.345 10.8934C140.787 10.4279 138.995 10.5516 138.995 10.5516H138.541C137.679 10.5263 136.824 10.7086 136.05 11.0825C135.37 11.4265 134.767 11.9014 134.28 12.4787C133.779 13.0843 133.38 13.7643 133.098 14.4931C132.781 15.2688 132.532 16.0691 132.354 16.8855C132.188 17.6565 132.088 18.4398 132.056 19.2271C132.013 19.9257 132.114 20.6256 132.354 21.2851C132.574 21.8791 132.984 22.3887 133.522 22.7395C134.216 23.1511 135.023 23.3463 135.834 23.2994H136.31C137.271 23.3301 138.215 23.0489 138.995 22.4995C139.685 21.9999 140.25 21.3533 140.646 20.6088L146.276 20.6234Z" fill="#127083"/>
<path d="M74.001 6.69768L74.1497 6.00684H90.497L89.6266 10.8282L86.2572 10.8209L74.001 6.69768Z" fill="#8BB7C2"/>
<path d="M91.1289 13.0754L95.6879 14.7043L97.4661 5.89062H92.5795L91.1289 13.0754Z" fill="#8BB7C2"/>
<path d="M111.15 20.7689L112.214 20.3762L114.14 10.0717H120.953L121.741 5.84668H103.49L102.702 10.0717H109.521L107.766 19.4671L111.15 20.7689Z" fill="#8BB7C2"/>
<path d="M120.536 17.2124L125.534 15.3289L127.311 5.91895H122.655L120.536 17.2124Z" fill="#8BB7C2"/>
<path d="M127.721 13.8458L145.979 7.53376C144.097 5.49029 131.015 2.44331 127.721 13.8458Z" fill="#8BB7C2"/>
</svg>
