<svg width="24" height="24" viewBox="0 0 24 24" fill="none" xmlns="http://www.w3.org/2000/svg">
<path d="M0 2.08706C0 3.35491 1.07452 4.38271 2.4 4.38271H21.6C22.9255 4.38271 24 3.35491 24 2.08706V0H0V2.08706Z" fill="#375E65"/>
<path d="M0 2.08706C0 0.819205 1.07452 0 2.4 0H21.6C22.9255 0 24 0.819205 24 2.08706V3.4952C24 4.06628 23.7775 4.61685 23.3759 5.03942L13.7759 15.1403C12.8236 16.1422 11.1764 16.1422 10.2241 15.1403L0.624144 5.03942C0.222533 4.61685 0 4.06628 0 3.4952V2.08706Z" fill="#375E65"/>
<path d="M9.6 4.38271H14.4V19.2L9.6 24V4.38271Z" fill="#375E65"/>
</svg>
