<svg width="34" height="26" viewBox="0 0 34 26" fill="none" xmlns="http://www.w3.org/2000/svg">
<path d="M0 13C0 11.6946 1.05824 10.6364 2.36364 10.6364H31.6364C32.9418 10.6364 34 11.6946 34 13C34 14.3054 32.9418 15.3636 31.6364 15.3636H2.36364C1.05823 15.3636 0 14.3054 0 13Z" fill="white"/>
<path d="M0 23.6364C0 22.331 1.05824 21.2727 2.36364 21.2727H31.6364C32.9418 21.2727 34 22.331 34 23.6364C34 24.9418 32.9418 26 31.6364 26H2.36364C1.05823 26 0 24.9418 0 23.6364Z" fill="white"/>
<path d="M0 2.36364C0 1.05824 1.05824 0 2.36364 0H31.6364C32.9418 0 34 1.05824 34 2.36364C34 3.66904 32.9418 4.72727 31.6364 4.72727H2.36364C1.05823 4.72727 0 3.66904 0 2.36364Z" fill="white"/>
</svg>
