<svg width="722" height="606" viewBox="0 0 722 606" fill="none" xmlns="http://www.w3.org/2000/svg">
<path d="M99.5897 123.671C111.898 32.5 158 30 302.5 60.9999C447 91.9999 469.825 -7.16035 634.161 17.1849C798.498 41.5302 645.662 445.775 538.08 547.73C430.498 649.685 279.119 504.5 165.5 504.5C51.8814 504.5 6.48634 418.586 63.6056 303.037C120.725 187.487 87.2811 214.843 99.5897 123.671Z" fill="#3DB84A" fill-opacity="0.3"/>
<path d="M620.358 392.237C620.358 352.809 613.744 313.768 600.895 277.341C588.046 240.915 569.213 207.817 545.471 179.937C521.729 152.058 493.543 129.943 462.523 114.854C431.503 99.7659 398.255 92 364.679 92C331.103 92 297.855 99.7659 266.835 114.854C235.814 129.943 207.629 152.058 183.887 179.937C160.145 207.817 141.311 240.915 128.462 277.341C115.613 313.768 109 352.809 109 392.237L620.358 392.237Z" fill="#7000FF" fill-opacity="0.3"/>
<ellipse cx="383.829" cy="422.665" rx="82.7508" ry="26.5227" fill="black" fill-opacity="0.3"/>
<path d="M567.392 2.40657C646.57 -2.90745 723.378 0.47449 720.059 130.431" stroke="#3DB84A" stroke-opacity="0.3" stroke-width="2" stroke-linecap="round"/>
<path d="M348.845 571.61C434.263 612.344 527.316 636.59 586.488 513.419" stroke="#3DB84A" stroke-opacity="0.3" stroke-width="2" stroke-linecap="round"/>
<path d="M86.3706 171.807C90.9798 200.942 85.4488 229.592 62.4028 269.41" stroke="#3DB84A" stroke-opacity="0.3" stroke-width="2" stroke-linecap="round"/>
<path d="M229.631 113.994L150.809 109.028C134.549 108.004 120.537 120.355 119.512 136.615L118.215 157.203C117.191 173.463 129.542 187.475 145.802 188.5L254.066 195.321L257.218 145.291C258.243 129.031 245.892 115.019 229.631 113.994Z" stroke="white"/>
<ellipse cx="371.101" cy="423.143" rx="82.7508" ry="26.5227" fill="#476B72"/>
<path d="M413.538 400.333L389.137 421.021C383.302 415.54 361.845 397.065 371.632 396.62C383.302 396.09 408.233 398.742 413.538 400.333Z" fill="#34555A"/>
<ellipse cx="369.511" cy="414.125" rx="23.8704" ry="12.2004" fill="#3E646A"/>
<rect x="345.64" y="367.976" width="47.7409" height="45.6191" fill="#3E646A"/>
<path d="M393.381 384.95L345.64 382.298V375.932L393.381 377.524V384.95Z" fill="#34555A"/>
<path d="M470.298 231.225L491.753 266.581L485.488 353.794L460.748 384.208L470.298 231.225Z" fill="#34555A"/>
<path d="M263.419 303.579L219.391 359.276L176.425 304.735L140.884 314.188" stroke="#383838" stroke-width="15" stroke-linecap="round"/>
<path d="M252.5 329.5L253.5 304L259 297L257.5 323.5L252.5 329.5Z" fill="#272727"/>
<path d="M477.722 309.095L522.48 365.067L576.054 323.692L612.656 336.953" stroke="#383838" stroke-width="15" stroke-linecap="round"/>
<path d="M486.5 308L482 326.5L475 318.5L480.5 300.5L486.5 308Z" fill="#272727"/>
<path d="M261.993 217.433L483.558 228.785L472.978 386.117L251.442 373.386L261.993 217.433Z" fill="#476B72"/>
<path d="M486.21 235.15L483.557 228.785L472.978 386.117L477.192 381.555L486.21 235.15Z" fill="#3E646A"/>
<path d="M270.602 225.887L473.588 236.639L464.672 369.629L261.68 357.978L270.602 225.887Z" fill="#EBDCDC"/>
<path d="M386.045 348.383L337.172 345.772C337.172 345.772 343.891 320.858 364.968 322.685C386.045 324.512 386.045 348.383 386.045 348.383Z" fill="#383838"/>
<path d="M385.424 348.349L355.719 346.757C355.719 346.757 358.383 334.713 371.114 335.243C383.845 335.774 385.424 348.349 385.424 348.349Z" fill="#B14545"/>
<path d="M371.114 335.243C383.845 335.774 385.424 348.349 385.424 348.349C385.424 348.349 382.772 339.861 371.102 339.331C359.432 338.8 355.719 346.757 355.719 346.757C355.719 346.757 358.383 334.713 371.114 335.243Z" fill="#783F3F"/>
<path d="M322.3 240.985C318.48 258.808 303.026 263.971 295.777 264.325L309.038 252.655L322.3 240.985Z" fill="#383838"/>
<path d="M415.785 246.29C418.693 264.284 433.865 270.226 441.087 270.948L428.436 258.619L415.785 246.29Z" fill="#383838"/>
<path d="M297.9 289.256C299.405 274.968 312.137 260.603 326.013 264.325C338.452 267.661 341.206 281.92 338.744 294.561C336.097 308.153 324.899 319.407 311.691 315.249C300.38 311.687 296.657 301.05 297.9 289.256Z" fill="url(#paint0_radial_706_236)"/>
<path d="M310.662 290.367C311.386 283.424 317.512 276.444 324.189 278.252C330.174 279.874 331.499 286.802 330.314 292.945C329.041 299.55 323.652 305.019 317.297 302.998C311.855 301.268 310.064 296.098 310.662 290.367Z" fill="#405B41"/>
<path d="M310.662 290.367C311.386 283.424 315.823 281.191 322.5 283C328.485 284.621 331.499 286.802 330.314 292.945C329.041 299.55 323.652 305.019 317.297 302.998C311.855 301.268 310.064 296.098 310.662 290.367Z" fill="#629F64"/>
<path d="M313.81 290.449C314.305 285.242 318.497 280.006 323.065 281.363C327.16 282.579 328.067 287.775 327.256 292.382C326.385 297.336 322.698 301.438 318.35 299.922C314.626 298.624 313.401 294.747 313.81 290.449Z" fill="#383838"/>
<path d="M322.752 281.741C322.75 284.321 319.323 286.41 315.098 286.407C310.873 286.403 307.449 284.309 307.451 281.728C307.453 279.148 310.88 277.059 315.106 277.062C319.331 277.066 322.755 279.16 322.752 281.741Z" fill="white"/>
<path d="M427.665 295.527C426.16 281.239 413.428 266.874 399.551 270.596C387.112 273.932 384.358 288.191 386.82 300.832C389.467 314.423 400.666 325.678 413.873 321.52C425.185 317.958 428.907 307.32 427.665 295.527Z" fill="url(#paint1_radial_706_236)"/>
<path d="M414.903 296.638C414.179 289.695 408.053 282.714 401.376 284.523C395.391 286.144 394.066 293.073 395.25 299.216C396.524 305.821 401.912 311.29 408.267 309.269C413.71 307.539 415.501 302.369 414.903 296.638Z" fill="#405B41"/>
<path d="M414.903 296.638C414.179 289.695 409.741 287.462 403.064 289.271C397.079 290.892 394.066 293.073 395.25 299.216C396.524 305.821 401.912 311.29 408.267 309.269C413.71 307.539 415.501 302.369 414.903 296.638Z" fill="#629F64"/>
<path d="M411.755 296.72C411.259 291.512 407.068 286.277 402.499 287.633C398.404 288.849 397.498 294.046 398.308 298.653C399.18 303.607 402.867 307.709 407.215 306.193C410.938 304.895 412.164 301.018 411.755 296.72Z" fill="#383838"/>
<path d="M390.004 287.685C390.006 290.265 393.433 292.354 397.658 292.351C401.884 292.347 405.307 290.253 405.305 287.672C405.303 285.092 401.876 283.003 397.651 283.006C393.425 283.01 390.002 285.105 390.004 287.685Z" fill="white"/>
<path d="M111.709 361.132C114.715 368.735 118.181 386.912 107.996 398.794" stroke="black" stroke-opacity="0.5" stroke-width="2" stroke-linecap="round"/>
<path d="M392.682 91.7353L562.52 100.599C578.79 101.448 591.292 115.326 590.443 131.596L588.698 165.016C587.849 181.287 573.971 193.788 557.701 192.939L358.403 182.538L361.685 119.658C362.534 103.388 376.412 90.8862 392.682 91.7353Z" stroke="white"/>
<path d="M332.431 134.13C333.294 117.584 347.407 104.871 363.953 105.734L533.791 114.598C550.337 115.461 563.05 129.574 562.187 146.121L560.443 179.541C559.579 196.087 545.466 208.8 528.92 207.936L329.123 197.509L332.431 134.13Z" fill="#3E646A"/>
<path d="M458.001 195.133C456.345 193.295 456.493 190.463 458.331 188.807L479.963 169.321C481.801 167.666 484.633 167.814 486.289 169.652C487.944 171.49 487.796 174.322 485.958 175.977L464.327 195.463C462.489 197.119 459.657 196.971 458.001 195.133Z" fill="#385A60"/>
<path d="M484.885 196.536C483.048 198.192 480.215 198.044 478.56 196.206L459.074 174.574C457.418 172.736 457.566 169.904 459.404 168.249C461.242 166.593 464.074 166.741 465.73 168.579L485.216 190.21C486.871 192.048 486.723 194.88 484.885 196.536Z" fill="#385A60"/>
<path d="M416.775 163.786L415.932 179.93C415.932 179.93 415.616 185.985 444.542 187.494C473.468 189.004 473.784 182.95 473.784 182.95L474.627 166.805" stroke="#385A60" stroke-width="6"/>
<path d="M417.617 147.641L416.774 163.786C416.774 163.786 416.458 169.84 445.384 171.35C474.31 172.859 474.626 166.805 474.626 166.805L475.469 150.66" stroke="#385A60" stroke-width="6"/>
<path d="M417.617 147.641L418.459 131.496C418.459 131.496 418.775 125.442 447.701 126.951C476.628 128.461 476.312 134.515 476.312 134.515L475.469 150.66C475.469 150.66 475.153 156.714 446.227 155.205C417.301 153.695 417.617 147.641 417.617 147.641Z" stroke="#385A60" stroke-width="6"/>
<path d="M447.07 139.06C475.996 140.569 476.328 134.197 476.328 134.197C476.328 134.197 476.628 128.461 447.701 126.951C418.775 125.442 418.476 131.177 418.476 131.177C418.476 131.177 418.143 137.55 447.07 139.06Z" stroke="#385A60" stroke-width="6"/>
<path d="M414.295 159.609L413.452 175.754C413.452 175.754 413.136 181.808 442.062 183.317C470.989 184.827 471.304 178.773 471.304 178.773L472.147 162.628" stroke="white" stroke-width="6"/>
<path d="M415.137 143.464L414.294 159.609C414.294 159.609 413.978 165.663 442.904 167.173C471.83 168.682 472.146 162.628 472.146 162.628L472.989 146.483" stroke="white" stroke-width="6"/>
<path d="M415.137 143.464L415.98 127.319C415.98 127.319 416.296 121.265 445.222 122.775C474.148 124.284 473.832 130.339 473.832 130.339L472.989 146.483C472.989 146.483 472.674 152.538 443.747 151.028C414.821 149.518 415.137 143.464 415.137 143.464Z" stroke="white" stroke-width="6"/>
<path d="M444.59 134.883C473.516 136.393 473.849 130.02 473.849 130.02C473.849 130.02 474.148 124.284 445.222 122.775C416.296 121.265 415.997 127.001 415.997 127.001C415.997 127.001 415.664 133.374 444.59 134.883Z" stroke="white" stroke-width="6"/>
<path d="M456.997 194.018C455.341 192.18 455.489 189.348 457.327 187.693L478.959 168.207C480.797 166.551 483.629 166.699 485.285 168.537C486.94 170.375 486.792 173.207 484.955 174.863L463.323 194.348C461.485 196.004 458.653 195.856 456.997 194.018Z" fill="#B14545"/>
<path d="M483.882 195.421C482.044 197.077 479.211 196.929 477.556 195.091L458.07 173.46C456.414 171.622 456.562 168.789 458.4 167.134C460.238 165.478 463.07 165.626 464.726 167.464L484.212 189.096C485.867 190.934 485.72 193.766 483.882 195.421Z" fill="#B14545"/>
<path d="M275.393 159.507C276.434 142.972 263.874 128.722 247.338 127.68L168.515 122.714C151.98 121.673 137.73 134.233 136.689 150.769L135.391 171.357C134.35 187.893 146.91 202.142 163.446 203.184L272.209 210.036L275.393 159.507Z" fill="#3E646A"/>
<g filter="url(#filter0_d_706_236)">
<circle cx="205.449" cy="189.885" r="4.24363" transform="rotate(3.60496 205.449 189.885)" fill="white"/>
<mask id="mask0_706_236" style="mask-type:alpha" maskUnits="userSpaceOnUse" x="180" y="135" width="52" height="50">
<rect x="183.373" y="135.343" width="47.7409" height="46.68" transform="rotate(3.60496 183.373 135.343)" fill="#C4C4C4"/>
</mask>
<g mask="url(#mask0_706_236)">
<path d="M189.911 154.806C189.775 153.541 189.749 152.258 189.83 150.959C189.966 149.662 190.314 148.403 190.876 147.182C191.569 145.583 192.626 144.199 194.045 143.032C195.465 141.865 197.056 140.974 198.818 140.36C200.69 139.705 202.573 139.292 204.469 139.121C206.421 138.906 208.303 138.952 210.114 139.26C211.979 139.57 213.749 140.117 215.422 140.899C217.153 141.636 218.758 142.656 220.237 143.957C221.818 145.362 222.956 146.956 223.652 148.74C224.404 150.479 224.749 152.264 224.687 154.097C224.679 155.933 224.323 157.747 223.617 159.54C222.969 161.287 222.033 162.895 220.809 164.365C220.809 164.365 220.78 164.411 220.72 164.504C219.738 165.554 218.629 166.499 217.391 167.339C216.157 168.132 214.998 169.001 213.915 169.948C212.666 170.981 211.897 172.068 211.61 173.21C211.325 174.304 211.032 175.542 210.73 176.924C210.484 178.262 210.007 179.416 209.3 180.387C208.649 181.312 207.494 181.699 205.834 181.546C204.711 181.427 203.873 181.06 203.319 180.445C202.822 179.785 202.466 179.038 202.249 178.203C202.089 177.322 202.065 176.427 202.176 175.516C202.29 174.556 202.424 173.719 202.576 173.003C203.004 171.339 203.694 169.787 204.647 168.349C205.602 166.863 206.739 165.484 208.057 164.214C208.8 163.536 209.538 162.93 210.272 162.396C211.008 161.814 211.693 161.205 212.325 160.568C212.958 159.931 213.513 159.241 213.991 158.498C214.468 157.755 214.819 156.883 215.044 155.882C215.262 154.978 215.24 154.058 214.975 153.123C214.714 152.14 214.285 151.267 213.686 150.504C213.091 149.693 212.353 149.019 211.472 148.48C210.593 147.893 209.619 147.541 208.55 147.426C207.587 147.317 206.56 147.373 205.47 147.594C204.382 147.767 203.364 148.114 202.416 148.634C201.47 149.106 200.679 149.709 200.04 150.442C199.455 151.178 199.159 152.03 199.152 152.996C199.169 153.577 199.239 154.186 199.36 154.821C199.538 155.413 199.636 155.999 199.653 156.58C199.727 157.116 199.667 157.644 199.473 158.163C199.332 158.686 198.952 159.17 198.331 159.614C197.314 160.372 196.323 160.72 195.358 160.659C194.395 160.55 193.529 160.206 192.758 159.625C191.986 159.045 191.332 158.327 190.793 157.472C190.311 156.571 190.017 155.683 189.911 154.806ZM210.811 192.299C210.723 193.695 210.054 194.909 208.804 195.942C207.611 196.93 206.264 197.377 204.762 197.283C203.314 197.191 202.06 196.581 201.001 195.451C199.947 194.224 199.463 192.937 199.548 191.589C199.642 190.097 200.284 188.881 201.474 187.941C202.67 186.905 203.992 186.432 205.44 186.523C206.942 186.618 208.221 187.254 209.278 188.432C210.391 189.566 210.902 190.855 210.811 192.299Z" fill="white"/>
</g>
</g>
<path d="M627.461 398.608C627.461 398.608 638.084 387.378 634.902 381.013C631.188 373.586 621.64 386.317 610.5 389.5C596.128 393.606 616.564 376.321 597.239 381.013C575.613 386.262 553.36 404.913 531.296 407.812C516.189 409.796 445.314 383.52 430.51 387.124C422.046 389.184 422.022 396.142 422.022 396.142" stroke="#313D3F"/>
<path d="M630.796 388.352C621.882 383.568 611.357 392.493 603.876 406.432C596.395 420.371 601.725 434.543 608.707 439.525C617.621 444.309 631.881 439.154 639.362 425.214C646.843 411.275 639.71 393.136 630.796 388.352Z" fill="#3E646A"/>
<path d="M608.707 439.525C617.621 444.309 631.881 439.154 639.362 425.214C629.4 440.675 614.775 441.197 608.707 439.525Z" fill="#385A5F"/>
<path d="M607.001 400.549C600.396 409.127 596.473 424 604.917 435.702C606.343 418.417 616.197 409.478 620.856 401.74C625.515 394.001 627.328 390.397 624.146 388.304C620.964 386.211 614.002 391.457 607.001 400.549Z" fill="#374A4D"/>
<path d="M636.215 404.218C635.961 403.752 634.267 402.865 634.056 403.585C633.845 404.305 630.847 413.198 632.835 413.232C637.407 410.821 636.47 404.683 636.215 404.218Z" fill="#374A4C"/>
<path d="M636.216 404.218C636.47 404.683 637.407 410.821 632.835 413.231C636.324 410.194 636.542 405.957 636.216 404.218Z" fill="#293739"/>
<path d="M70.8203 342.483C72.8511 339.77 69.2532 342.676 72.3028 341.197C75.3523 339.719 78.7115 338.993 82.0993 339.08C85.4871 339.166 88.8049 340.063 91.7751 341.695C94.7452 343.327 97.2812 345.646 99.1709 348.459C101.061 351.272 102.249 354.497 102.637 357.864C103.024 361.231 102.6 364.641 101.399 367.81C100.198 370.979 98.2553 373.814 95.7338 376.078C93.2122 378.343 96.434 374.877 93.1545 375.731L91.5661 369.632C93.8715 369.032 89.7505 372.981 91.5231 371.389C93.2957 369.797 94.6612 367.804 95.5055 365.577C96.3497 363.349 96.6481 360.951 96.3756 358.585C96.1031 356.218 95.2677 353.951 93.9393 351.974C92.6109 349.996 90.8281 348.365 88.7402 347.218C86.6523 346.071 84.32 345.441 81.9385 345.38C79.5569 345.319 77.1955 345.83 75.0517 346.869C72.908 347.908 77.2933 344.352 75.8657 346.26L70.8203 342.483Z" fill="#AAAAAA"/>
<path d="M30.5225 370.68L70.5967 335.926L97.8683 375.468L65.8088 403.271L30.5225 370.68Z" fill="#AAAAAA"/>
<ellipse cx="81.8377" cy="389.369" rx="21.2182" ry="5.30454" transform="rotate(-40.9335 81.8377 389.369)" fill="#AAAAAA"/>
<path d="M66.0922 403.569L30.5518 370.681C68.745 401.978 69.8059 399.326 82.5363 395.613C81.6522 396.497 78.717 398.901 74.049 401.448C69.381 403.994 66.7995 403.923 66.0922 403.569Z" fill="#8C8C8C"/>
<ellipse cx="50.5594" cy="353.303" rx="26.5227" ry="5.30454" transform="rotate(-40.9335 50.5594 353.303)" fill="#8C8C8C"/>
<ellipse cx="50.56" cy="353.303" rx="24.4009" ry="3.18272" transform="rotate(-40.9335 50.56 353.303)" fill="#636363"/>
<path d="M68.9979 337.321C70.1495 338.649 62.8299 346.883 52.649 355.712C42.4681 364.542 33.2812 370.623 32.1295 369.295C30.9779 367.967 2.70105 365.318 38.6153 357.342C59.8049 350.2 67.8462 335.993 68.9979 337.321Z" fill="#5F372A"/>
<path d="M24.3211 358.445C23.2602 359.506 15.8673 361.76 14.7733 357.384C13.7124 353.14 19.0165 358.975 24.3211 358.445Z" fill="#5F372A"/>
<path d="M68.9979 337.321C70.1496 338.649 62.8299 346.883 52.649 355.712C42.4681 364.542 33.2813 370.623 32.1296 369.295C30.9779 367.967 16.1235 367.093 40.1005 359.011C61.29 351.869 67.8463 335.993 68.9979 337.321Z" fill="#47291F"/>
<path d="M122.815 375.042C124.253 377.51 126.12 384.312 122.079 391.775" stroke="black" stroke-opacity="0.5" stroke-width="2" stroke-linecap="round"/>
<path d="M640.378 328.903C646.777 335.422 653.328 341.714 659.92 348.024" stroke="black" stroke-opacity="0.5" stroke-width="2" stroke-linecap="round"/>
<path d="M635.394 313.443C649.608 324.386 663.113 336.067 677.452 346.832" stroke="black" stroke-opacity="0.5" stroke-width="2" stroke-linecap="round"/>
<path d="M38.3577 354.727C35.6527 353.146 30.112 349.186 30.1194 352.686C30.1268 356.185 35.6588 356.062 38.3577 354.727Z" fill="#5F372A"/>
<ellipse cx="67.9027" cy="424.79" rx="30.3563" ry="2.79598" fill="black" fill-opacity="0.3"/>
<path d="M592.29 408.873C589.284 416.476 585.818 434.653 596.003 446.535" stroke="black" stroke-opacity="0.5" stroke-width="2" stroke-linecap="round"/>
<path d="M581.185 422.783C579.746 425.251 577.879 432.052 581.92 439.516" stroke="black" stroke-opacity="0.5" stroke-width="2" stroke-linecap="round"/>
<ellipse cx="610.318" cy="454.748" rx="19.9713" ry="1.5977" fill="black" fill-opacity="0.3"/>
<path d="M558.574 283.603L635.456 286.543C650.677 287.126 663.489 275.258 664.071 260.037C664.653 244.816 652.786 232.005 637.564 231.423L531.204 227.354L530.223 252.997C529.601 269.277 542.294 282.98 558.574 283.603Z" stroke="white"/>
<path d="M518.147 242.142C517.513 258.698 530.422 272.633 546.978 273.267L623.86 276.207C639.357 276.8 652.4 264.718 652.993 249.221V249.221C653.586 233.724 641.504 220.68 626.006 220.087L519.147 216L518.147 242.142Z" fill="#3E646A"/>
<circle cx="558.211" cy="246.145" r="5.99138" transform="rotate(2.19045 558.211 246.145)" fill="white"/>
<circle cx="586.15" cy="247.213" r="5.99138" transform="rotate(2.19045 586.15 247.213)" fill="white"/>
<circle cx="614.089" cy="248.282" r="5.99138" transform="rotate(2.19045 614.089 248.282)" fill="white"/>
<path d="M215.152 453.7L493.772 458.172L480.5 501.5C478.808 507.938 471.546 512.1 464.916 511.827L179.091 500.081C174.711 499.901 172.733 494.57 175.911 491.509L215.152 453.7Z" fill="#3E646A"/>
<path d="M231.785 487.214L309.849 489.86L305.896 495.715L225.884 492.504L231.785 487.214Z" fill="#476B72"/>
<path d="M218.245 487.246L228.243 487.058L223.838 492.142L213.33 491.84L218.245 487.246Z" fill="#476B72"/>
<path d="M204.772 486.767L214.771 486.58L210.365 491.663L199.857 491.361L204.772 486.767Z" fill="#476B72"/>
<path d="M328.338 491.175L338.337 490.987L333.932 496.071L323.424 495.769L328.338 491.175Z" fill="#476B72"/>
<path d="M314.866 490.696L324.864 490.508L320.459 495.592L309.951 495.29L314.866 490.696Z" fill="#476B72"/>
<path d="M355.353 491.666L365.351 491.479L360.946 496.562L350.438 496.26L355.353 491.666Z" fill="#476B72"/>
<path d="M341.879 491.188L351.878 491L347.473 496.084L336.965 495.781L341.879 491.188Z" fill="#476B72"/>
<path d="M325.724 483.034L335.724 482.894L331.294 487.956L320.788 487.604L325.724 483.034Z" fill="#476B72"/>
<path d="M271.702 481.79L281.701 481.651L277.271 486.713L266.765 486.36L271.702 481.79Z" fill="#476B72"/>
<path d="M217.679 480.546L227.679 480.406L223.249 485.469L212.743 485.116L217.679 480.546Z" fill="#476B72"/>
<path d="M205.681 480.772L215.68 480.632L211.25 485.695L200.744 485.342L205.681 480.772Z" fill="#476B72"/>
<path d="M312.254 482.49L322.253 482.35L317.824 487.413L307.317 487.06L312.254 482.49Z" fill="#476B72"/>
<path d="M258.232 481.246L268.231 481.106L263.801 486.169L253.295 485.816L258.232 481.246Z" fill="#476B72"/>
<path d="M190.407 480.787L202.155 480.566L198.241 485.141L185.493 485.38L190.407 480.787Z" fill="#476B72"/>
<path d="M350.769 484.042L360.768 483.902L356.338 488.965L345.832 488.612L350.769 484.042Z" fill="#476B72"/>
<path d="M361.265 484.893L373.784 484.657L369.354 489.72L356.328 489.463L361.265 484.893Z" fill="#476B72"/>
<path d="M298.713 482.412L308.712 482.272L304.283 487.334L293.776 486.981L298.713 482.412Z" fill="#476B72"/>
<path d="M244.691 481.168L254.69 481.028L250.26 486.091L239.754 485.738L244.691 481.168Z" fill="#476B72"/>
<path d="M339.265 483.112L349.265 482.972L344.835 488.035L334.329 487.682L339.265 483.112Z" fill="#476B72"/>
<path d="M285.243 481.868L295.242 481.729L290.812 486.791L280.306 486.438L285.243 481.868Z" fill="#476B72"/>
<path d="M231.22 480.624L241.219 480.484L236.789 485.547L226.283 485.194L231.22 480.624Z" fill="#476B72"/>
<path d="M339.612 477.701L349.612 477.716L345.104 482.709L334.605 482.193L339.612 477.701Z" fill="#476B72"/>
<path d="M285.615 475.621L295.615 475.636L291.107 480.629L280.608 480.114L285.615 475.621Z" fill="#476B72"/>
<path d="M231.617 473.541L241.618 473.556L237.11 478.549L226.61 478.033L231.617 473.541Z" fill="#476B72"/>
<path d="M219.618 473.58L229.618 473.596L225.11 478.589L214.611 478.073L219.618 473.58Z" fill="#476B72"/>
<path d="M326.151 476.949L336.152 476.964L331.644 481.957L321.144 481.442L326.151 476.949Z" fill="#476B72"/>
<path d="M272.154 474.868L282.155 474.883L277.647 479.876L267.147 479.361L272.154 474.868Z" fill="#476B72"/>
<path d="M369.156 472.155L384.013 472.079L374.22 483.06L363.72 482.544L369.231 476.155L364.732 476.239L369.156 472.155Z" fill="#476B72"/>
<path d="M312.613 476.661L322.614 476.676L318.106 481.669L307.606 481.154L312.613 476.661Z" fill="#476B72"/>
<path d="M258.616 474.58L268.616 474.596L264.109 479.589L253.609 479.073L258.616 474.58Z" fill="#476B72"/>
<path d="M353.15 477.989L363.15 478.004L358.642 482.997L348.143 482.482L353.15 477.989Z" fill="#476B72"/>
<path d="M299.153 475.909L309.154 475.924L304.646 480.917L294.146 480.401L299.153 475.909Z" fill="#476B72"/>
<path d="M245.156 473.828L255.156 473.843L250.648 478.836L240.149 478.32L245.156 473.828Z" fill="#476B72"/>
<path d="M342.498 471.646L352.499 471.661L347.991 476.654L337.492 476.138L342.498 471.646Z" fill="#476B72"/>
<path d="M288.501 469.566L298.502 469.581L293.994 474.574L283.495 474.059L288.501 469.566Z" fill="#476B72"/>
<path d="M234.504 467.485L244.504 467.5L239.997 472.493L229.497 471.978L234.504 467.485Z" fill="#476B72"/>
<path d="M222.504 467.525L232.504 467.54L227.997 472.533L217.497 472.018L222.504 467.525Z" fill="#476B72"/>
<path d="M329.038 470.893L339.038 470.908L334.531 475.901L324.031 475.386L329.038 470.893Z" fill="#476B72"/>
<path d="M275.041 468.813L285.042 468.828L280.534 473.821L270.035 473.306L275.041 468.813Z" fill="#476B72"/>
<path d="M315.5 470.605L325.5 470.621L320.993 475.614L310.493 475.098L315.5 470.605Z" fill="#476B72"/>
<path d="M261.502 468.525L271.503 468.54L266.995 473.534L256.496 473.018L261.502 468.525Z" fill="#476B72"/>
<path d="M356.036 471.934L366.036 471.949L361.529 476.942L351.029 476.426L356.036 471.934Z" fill="#476B72"/>
<path d="M302.039 469.853L312.04 469.868L307.532 474.861L297.033 474.346L302.039 469.853Z" fill="#476B72"/>
<path d="M248.042 467.773L258.043 467.788L253.535 472.781L243.036 472.266L248.042 467.773Z" fill="#476B72"/>
<path d="M342.385 465.646L352.386 465.662L347.878 470.655L337.378 470.139L342.385 465.646Z" fill="#476B72"/>
<path d="M288.389 463.567L298.389 463.582L293.881 468.575L283.382 468.06L288.389 463.567Z" fill="#476B72"/>
<path d="M234.391 461.486L244.391 461.501L239.884 466.494L229.384 465.979L234.391 461.486Z" fill="#476B72"/>
<path d="M222.391 461.526L232.391 461.542L227.884 466.535L217.384 466.019L222.391 461.526Z" fill="#476B72"/>
<path d="M328.925 464.895L338.926 464.91L334.418 469.903L323.918 469.387L328.925 464.895Z" fill="#476B72"/>
<path d="M274.928 462.814L284.928 462.829L280.42 467.822L269.921 467.307L274.928 462.814Z" fill="#476B72"/>
<path d="M370.37 465.953L389.906 465.585L385.004 470.791L365.363 470.446L370.37 465.953Z" fill="#476B72"/>
<path d="M315.387 464.607L325.387 464.622L320.88 469.615L310.38 469.1L315.387 464.607Z" fill="#476B72"/>
<path d="M261.39 462.526L271.39 462.542L266.882 467.535L256.383 467.019L261.39 462.526Z" fill="#476B72"/>
<path d="M355.923 465.934L365.924 465.95L361.416 470.943L350.916 470.427L355.923 465.934Z" fill="#476B72"/>
<path d="M301.927 463.854L311.927 463.87L307.419 468.863L296.92 468.347L301.927 463.854Z" fill="#476B72"/>
<path d="M247.929 461.773L257.93 461.789L253.422 466.782L242.922 466.266L247.929 461.773Z" fill="#476B72"/>
<path d="M396.383 492.895L406.381 492.707L401.976 497.79L391.468 497.488L396.383 492.895Z" fill="#476B72"/>
<path d="M409.924 492.907L419.923 492.719L415.518 497.803L405.01 497.501L409.924 492.907Z" fill="#476B72"/>
<path d="M453.973 495.079L463.971 494.891L459.566 499.974L449.058 499.672L453.973 495.079Z" fill="#476B72"/>
<path d="M401.794 486.059L411.792 485.871L407.387 490.955L396.879 490.652L401.794 486.059Z" fill="#476B72"/>
<path d="M382.91 492.415L392.908 492.228L388.503 497.311L377.995 497.009L382.91 492.415Z" fill="#476B72"/>
<path d="M184.763 486.497L200.76 486.196L196.355 491.28L179.849 491.091L184.763 486.497Z" fill="#476B72"/>
<path d="M203.421 468.142L219.419 467.841L215.013 472.925L198.507 472.736L203.421 468.142Z" fill="#476B72"/>
<path d="M209.307 462.031L217.306 461.88L213.14 466.46L204.393 466.625L209.307 462.031Z" fill="#476B72"/>
<path d="M218.184 455.392L226.183 455.241L222.017 459.821L213.27 459.986L218.184 455.392Z" fill="#476B72"/>
<path d="M234.357 455.271L242.356 455.434L238.014 459.847L229.267 459.669L234.357 455.271Z" fill="#476B72"/>
<path d="M246.354 455.516L254.353 455.678L250.011 460.091L241.264 459.913L246.354 455.516Z" fill="#476B72"/>
<path d="M259.352 455.781L267.35 455.944L263.008 460.357L254.261 460.178L259.352 455.781Z" fill="#476B72"/>
<path d="M271.349 456.025L279.348 456.188L275.006 460.601L266.258 460.423L271.349 456.025Z" fill="#476B72"/>
<path d="M291.385 456.198L299.383 456.361L295.041 460.774L286.294 460.595L291.385 456.198Z" fill="#476B72"/>
<path d="M303.382 456.443L311.38 456.605L307.038 461.018L298.291 460.84L303.382 456.443Z" fill="#476B72"/>
<path d="M316.38 456.728L324.378 456.891L320.036 461.304L311.289 461.125L316.38 456.728Z" fill="#476B72"/>
<path d="M328.377 456.952L336.376 457.115L332.034 461.528L323.286 461.349L328.377 456.952Z" fill="#476B72"/>
<path d="M347.412 457.144L355.411 457.307L351.069 461.72L342.321 461.541L347.412 457.144Z" fill="#476B72"/>
<path d="M359.41 457.389L367.409 457.551L363.067 461.964L354.32 461.786L359.41 457.389Z" fill="#476B72"/>
<path d="M408.316 458.824L416.316 458.877L412.035 463.349L403.286 463.291L408.316 458.824Z" fill="#476B72"/>
<path d="M372.407 457.674L380.405 457.836L376.063 462.249L367.316 462.071L372.407 457.674Z" fill="#476B72"/>
<path d="M421.316 458.93L429.316 458.983L425.035 463.455L416.286 463.397L421.316 458.93Z" fill="#476B72"/>
<path d="M384.404 457.898L392.403 458.06L388.061 462.474L379.314 462.295L384.404 457.898Z" fill="#476B72"/>
<path d="M433.316 458.99L441.315 459.043L437.034 463.515L428.286 463.457L433.316 458.99Z" fill="#476B72"/>
<path d="M402.954 467.812L410.854 467.843L406.638 472.327L397.999 472.292L402.954 467.812Z" fill="#476B72"/>
<path d="M415.792 467.884L423.691 467.916L419.476 472.4L410.837 472.364L415.792 467.884Z" fill="#476B72"/>
<path d="M427.639 467.912L435.539 467.944L431.323 472.428L422.684 472.392L427.639 467.912Z" fill="#476B72"/>
<path d="M397.241 474.019L405.14 474.05L400.925 478.534L392.286 478.499L397.241 474.019Z" fill="#476B72"/>
<path d="M410.078 474.091L417.978 474.123L413.762 478.607L405.123 478.571L410.078 474.091Z" fill="#476B72"/>
<path d="M421.927 474.12L429.826 474.152L425.61 478.635L416.971 478.6L421.927 474.12Z" fill="#476B72"/>
<path d="M196.539 474.45L215.536 474.092L211.131 479.176L191.625 479.043L196.539 474.45Z" fill="#476B72"/>
<path d="M435.964 494.77L451.961 494.469L447.556 499.553L431.049 499.364L435.964 494.77Z" fill="#476B72"/>
<path d="M442.2 488.165L449.568 488.026L444.967 492.804L436.93 492.955L442.2 488.165Z" fill="#476B72"/>
<path d="M452.198 487.977L459.566 487.838L454.965 492.616L446.928 492.767L452.198 487.977Z" fill="#476B72"/>
<path d="M460.9 488.39L467.347 488.269L463.668 493.029L455.631 493.181L460.9 488.39Z" fill="#476B72"/>
<path d="M446.086 482.091L453.454 481.952L448.854 486.73L440.816 486.881L446.086 482.091Z" fill="#476B72"/>
<path d="M449.835 476.253L457.196 475.895L452.74 480.808L444.71 481.198L449.835 476.253Z" fill="#476B72"/>
<path d="M452.54 470.114L459.901 469.757L455.445 474.669L447.415 475.059L452.54 470.114Z" fill="#476B72"/>
<path d="M456.084 481.903L463.452 481.764L458.852 486.542L450.814 486.693L456.084 481.903Z" fill="#476B72"/>
<path d="M459.823 475.767L467.184 475.409L462.728 480.322L454.699 480.712L459.823 475.767Z" fill="#476B72"/>
<path d="M462.528 469.628L469.889 469.271L465.433 474.183L457.404 474.573L462.528 469.628Z" fill="#476B72"/>
<path d="M464.787 482.317L471.234 482.195L467.555 486.956L459.518 487.107L464.787 482.317Z" fill="#476B72"/>
<path d="M468.535 475.922L474.975 475.609L471.439 480.477L463.41 480.867L468.535 475.922Z" fill="#476B72"/>
<path d="M471.24 469.784L477.68 469.471L474.144 474.339L466.115 474.729L471.24 469.784Z" fill="#476B72"/>
<path d="M469.341 487.922L477.839 487.761L473.585 500.844L462.562 499.771L469.341 487.922Z" fill="#476B72"/>
<path d="M472.22 481.466L480.218 481.315L478.32 486.721L469.821 486.88L472.22 481.466Z" fill="#476B72"/>
<path d="M475.495 476.006L482.979 475.511L481.21 480.324L472.721 480.737L475.495 476.006Z" fill="#476B72"/>
<path d="M483.434 473.635L485.402 469.313L478.41 469.653L476.397 473.977L483.434 473.635Z" fill="#476B72"/>
<path d="M493.772 458.172L483.103 504.794C483.103 504.794 481.204 512.797 474.075 512.231C469.039 511.832 179.242 500.131 179.242 500.131C179.242 500.131 171.11 499.549 175.145 492.428L472.028 504.595C472.028 504.595 477.493 504.932 479.206 501.241L493.772 458.172Z" fill="#374A4C"/>
<path d="M87.7704 311.125C98.0936 305.815 117.91 295.855 128.071 290.255" stroke="black" stroke-opacity="0.5" stroke-width="2" stroke-linecap="round"/>
<path d="M95.4989 294.65C104.189 292.772 112.329 288.501 120.446 285" stroke="black" stroke-opacity="0.5" stroke-width="2" stroke-linecap="round"/>
<g clip-path="url(#clip0_706_236)">
<path d="M129.802 323.536C121.905 325.579 101.203 337.547 107.507 343.234C114.477 347.75 118.516 342.675 144.405 337.043C144.405 337.043 173.393 335.383 176.93 322.639C176.93 322.639 183.401 326.06 187.533 314.012C187.533 314.012 189.288 295.318 175.443 295.808C175.443 295.808 169.923 286.738 158.583 287.699C158.583 287.699 148.113 290.438 146.129 278.742C144.145 267.047 135.241 270.706 135.241 270.706C135.241 270.706 124.899 274.952 130.15 286.878C130.15 286.878 130.726 288.874 136.639 291.056C142.552 293.239 141.929 295.1 141.929 295.1C141.929 295.1 142.419 297.262 136.615 299.583C130.812 301.903 120.971 307.753 120.971 307.753C120.971 307.753 110.096 315.036 107.287 324.431C107.287 324.431 95.4143 335.637 106.298 340.99" fill="white"/>
<path d="M175.443 295.808C175.443 295.808 179.719 301.959 172.892 304.417C172.892 304.417 156.766 297.772 145.106 311.655C145.106 311.655 153.14 300.534 172.563 307.173C172.563 307.173 178.543 310.746 174.475 319.802C169.09 331.794 139.867 338.073 139.867 338.073C139.867 338.073 173.685 336.109 176.93 322.639C176.93 322.639 183.319 326.345 187.533 314.013C187.533 314.013 189.522 295.315 175.443 295.808Z" fill="#B3B3B3"/>
<path d="M106.298 340.99C111.71 328.96 131.427 323.581 131.427 323.581C131.427 323.581 112.736 325.644 105.604 338.316C105.604 338.316 95.1483 327.866 129.662 312.723C129.662 312.723 117.671 314.662 110.109 321.986C110.109 321.986 109.472 319.04 113.949 313.81C113.949 313.81 108.982 318.575 107.287 324.431C107.287 324.431 95.1453 335.737 106.298 340.99Z" fill="#B3B3B3"/>
<path d="M106.298 340.99C106.653 339.606 107.761 338.334 107.761 338.334C107.761 338.334 103.524 347.544 125.851 341.867C125.851 341.867 107.562 349.415 106.298 340.99Z" fill="#B3B3B3"/>
</g>
<g clip-path="url(#clip1_706_236)">
<path d="M617.617 351.82C624.735 355.803 641.715 372.64 634.174 376.538C626.284 379.134 623.668 373.199 600.061 361.172C600.061 361.172 572.446 352.199 572.265 338.975C572.265 338.975 565.137 340.638 564.203 327.936C564.203 327.936 567.257 309.409 580.522 313.402C580.522 313.402 588.166 306.033 598.89 309.845C598.89 309.845 608.32 315.155 613.211 304.348C618.103 293.541 625.785 299.343 625.785 299.343C625.785 299.343 634.707 306.078 626.598 316.278C626.598 316.278 625.533 318.062 619.26 318.67C612.987 319.277 613.116 321.236 613.116 321.236C613.116 321.236 612.093 323.202 617.116 326.922C622.139 330.641 630.17 338.8 630.17 338.8C630.17 338.8 638.837 348.608 639.165 358.409C639.165 358.409 647.8 372.265 635.913 374.675" fill="white"/>
<path d="M580.522 313.402C580.522 313.402 574.823 318.264 580.801 322.377C580.801 322.377 598.087 320.049 605.835 336.44C605.835 336.44 600.891 323.642 580.419 325.127C580.419 325.127 573.727 327.062 575.359 336.855C577.52 349.822 604.188 363.322 604.188 363.322C604.188 363.322 571.98 352.827 572.264 338.975C572.264 338.975 565.143 340.934 564.202 327.936C564.202 327.936 567.031 309.348 580.522 313.402Z" fill="#B3B3B3"/>
<path d="M635.912 374.675C633.736 361.665 616.033 351.451 616.033 351.451C616.033 351.451 633.587 358.196 637.263 372.266C637.263 372.266 650.032 364.816 620.501 341.399C620.501 341.399 631.605 346.321 637.057 355.327C637.057 355.327 638.421 352.639 635.421 346.443C635.421 346.443 639.014 352.314 639.165 358.409C639.165 358.409 648.034 372.429 635.912 374.675Z" fill="#B3B3B3"/>
<path d="M635.912 374.675C635.92 373.247 635.172 371.735 635.172 371.735C635.172 371.735 636.929 381.719 616.779 370.553C616.779 370.553 632.548 382.502 635.912 374.675Z" fill="#B3B3B3"/>
</g>
<defs>
<filter id="filter0_d_706_236" x="189.784" y="138.988" width="36.9102" height="57.1401" filterUnits="userSpaceOnUse" color-interpolation-filters="sRGB">
<feFlood flood-opacity="0" result="BackgroundImageFix"/>
<feColorMatrix in="SourceAlpha" type="matrix" values="0 0 0 0 0 0 0 0 0 0 0 0 0 0 0 0 0 0 127 0" result="hardAlpha"/>
<feOffset dx="2" dy="2"/>
<feComposite in2="hardAlpha" operator="out"/>
<feColorMatrix type="matrix" values="0 0 0 0 0 0 0 0 0 0 0 0 0 0 0 0 0 0 0.1 0"/>
<feBlend mode="normal" in2="BackgroundImageFix" result="effect1_dropShadow_706_236"/>
<feBlend mode="normal" in="SourceGraphic" in2="effect1_dropShadow_706_236" result="shape"/>
</filter>
<radialGradient id="paint0_radial_706_236" cx="0" cy="0" r="1" gradientUnits="userSpaceOnUse" gradientTransform="translate(319 290) rotate(100.042) scale(48.7468 38.9753)">
<stop offset="0.375231" stop-color="#FAF9FC"/>
<stop offset="1" stop-color="#B5B1BF"/>
</radialGradient>
<radialGradient id="paint1_radial_706_236" cx="0" cy="0" r="1" gradientUnits="userSpaceOnUse" gradientTransform="translate(406.564 296.271) rotate(79.958) scale(48.7468 38.9753)">
<stop offset="0.375231" stop-color="#FAF9FC"/>
<stop offset="1" stop-color="#B5B1BF"/>
</radialGradient>
<clipPath id="clip0_706_236">
<rect width="80.3158" height="69.4076" fill="white" transform="matrix(-0.464309 0.885673 0.885673 0.464309 134.292 267)"/>
</clipPath>
<clipPath id="clip1_706_236">
<rect width="80.3158" height="69.4076" fill="white" transform="translate(627.645 296) rotate(77.0591)"/>
</clipPath>
</defs>
</svg>
